<?xml version="1.0" standalone="no"?>
<!DOCTYPE svg PUBLIC "-//W3C//DTD SVG 20010904//EN"
 "http://www.w3.org/TR/2001/REC-SVG-20010904/DTD/svg10.dtd">
<svg version="1.0" xmlns="http://www.w3.org/2000/svg"
 width="1150.000000pt" height="1280.000000pt" viewBox="0 0 1150.000000 1280.000000"
 preserveAspectRatio="xMidYMid meet">
<metadata>
Created by potrace 1.15, written by Peter Selinger 2001-2017
</metadata>
<g transform="translate(0.000000,1280.000000) scale(0.100000,-0.100000)"
fill="#000000" stroke="none">
<path d="M710 12121 c-73 -7 -109 -23 -111 -49 -1 -9 0 -62 1 -117 47 -2459
48 -2619 40 -7857 l-5 -3377 23 -23 23 -23 512 0 c1806 2 7186 41 7727 57 212
6 588 12 835 14 615 5 937 17 994 38 57 21 130 81 146 120 15 35 9 83 -12 107
-12 14 -14 108 -13 600 1 335 -4 674 -10 794 -8 135 -15 898 -20 2140 -4 1062
-13 2216 -18 2565 -6 349 -16 1420 -22 2380 -9 1481 -13 1768 -26 1900 -16
150 -16 329 2 575 3 44 1 86 -3 92 -24 34 -118 38 -928 38 -440 0 -955 -2
-1145 -4 -300 -3 -2586 2 -6095 13 -606 2 -1121 8 -1235 14 -202 12 -547 13
-660 3z"/>
</g>
</svg>
