<svg width="585" height="224" viewBox="0 0 585 224" fill="none" xmlns="http://www.w3.org/2000/svg">
<path d="M0.294141 188H-1.70586V190H0.294141V188ZM0.294141 139.4L-1.34362 138.252L-1.70586 138.769V139.4H0.294141ZM92.3941 7.99999V5.99999H91.3536L90.7564 6.85206L92.3941 7.99999ZM156.894 7.99999H158.894V5.99999H156.894V7.99999ZM156.894 137H154.894V139H156.894V137ZM179.994 137H181.994V135H179.994V137ZM179.994 188V190H181.994V188H179.994ZM156.894 188V186H154.894V188H156.894ZM156.894 224V226H158.894V224H156.894ZM97.4941 224H95.4941V226H97.4941V224ZM97.4941 188H99.4941V186H97.4941V188ZM101.994 74.3H103.994V67.6413L100.325 73.198L101.994 74.3ZM60.5941 137L58.9251 135.898L56.8769 139H60.5941V137ZM101.994 137V139H103.994V137H101.994ZM2.29414 188V139.4H-1.70586V188H2.29414ZM1.9319 140.548L94.0319 9.14792L90.7564 6.85206L-1.34362 138.252L1.9319 140.548ZM92.3941 9.99999H156.894V5.99999H92.3941V9.99999ZM154.894 7.99999V137H158.894V7.99999H154.894ZM156.894 139H179.994V135H156.894V139ZM177.994 137V188H181.994V137H177.994ZM179.994 186H156.894V190H179.994V186ZM154.894 188V224H158.894V188H154.894ZM156.894 222H97.4941V226H156.894V222ZM99.4941 224V188H95.4941V224H99.4941ZM97.4941 186H0.294141V190H97.4941V186ZM100.325 73.198L58.9251 135.898L62.2631 138.102L103.663 75.402L100.325 73.198ZM60.5941 139H101.994V135H60.5941V139ZM103.994 137V74.3H99.9941V137H103.994ZM225.116 29.9L226.749 31.0547L226.749 31.0547L225.116 29.9ZM357.116 29.9L355.483 31.0547L355.491 31.0656L357.116 29.9ZM357.416 193.1L355.783 191.945L355.783 191.945L357.416 193.1ZM224.816 193.1L223.175 194.244L223.183 194.255L224.816 193.1ZM314.516 70.1L312.656 70.8361L312.659 70.8428L312.662 70.8496L314.516 70.1ZM267.716 70.1L269.57 70.8496L269.573 70.8428L269.576 70.8361L267.716 70.1ZM267.416 153.2L265.543 153.902L265.552 153.926L265.562 153.95L267.416 153.2ZM314.516 153.2L312.656 152.464L312.652 152.474L312.648 152.485L314.516 153.2ZM206.116 111.2C206.116 77.0466 213.069 50.4023 226.749 31.0547L223.483 28.7453C209.163 48.9976 202.116 76.5534 202.116 111.2H206.116ZM226.749 31.0547C240.284 11.912 261.592 2.19998 291.116 2.19998V-1.80002C260.64 -1.80002 237.948 8.28796 223.483 28.7453L226.749 31.0547ZM291.116 2.19998C320.64 2.19998 341.948 11.912 355.483 31.0547L358.749 28.7453C344.284 8.28796 321.592 -1.80002 291.116 -1.80002V2.19998ZM355.491 31.0656C369.365 50.4116 376.416 77.0515 376.416 111.2H380.416C380.416 76.5485 373.267 48.9883 358.741 28.7344L355.491 31.0656ZM376.416 111.2C376.416 145.759 369.461 172.601 355.783 191.945L359.049 194.255C373.371 173.999 380.416 146.241 380.416 111.2H376.416ZM355.783 191.945C342.25 211.084 320.846 220.8 291.116 220.8V224.8C321.786 224.8 344.582 214.716 359.049 194.255L355.783 191.945ZM291.116 220.8C261.386 220.8 239.982 211.084 226.449 191.945L223.183 194.255C237.65 214.716 260.446 224.8 291.116 224.8V220.8ZM226.457 191.956C212.973 172.61 206.116 145.764 206.116 111.2H202.116C202.116 146.236 209.059 173.99 223.175 194.244L226.457 191.956ZM322.216 111.2C322.216 93.111 320.314 79.1062 316.37 69.3504L312.662 70.8496C316.318 79.8938 318.216 93.2889 318.216 111.2H322.216ZM316.376 69.3639C314.338 64.2159 311.178 60.2515 306.864 57.5967C302.57 54.9542 297.281 53.7 291.116 53.7V57.7C296.751 57.7 301.262 58.8458 304.768 61.0033C308.254 63.1485 310.894 66.3841 312.656 70.8361L316.376 69.3639ZM291.116 53.7C284.951 53.7 279.662 54.9542 275.368 57.5967C271.054 60.2515 267.894 64.2159 265.856 69.3639L269.576 70.8361C271.338 66.3841 273.978 63.1485 277.464 61.0033C280.97 58.8458 285.481 57.7 291.116 57.7V53.7ZM265.862 69.3504C261.918 79.1062 260.016 93.111 260.016 111.2H264.016C264.016 93.2889 265.914 79.8938 269.57 70.8496L265.862 69.3504ZM260.016 111.2C260.016 129.68 261.817 143.966 265.543 153.902L269.289 152.498C265.815 143.234 264.016 129.52 264.016 111.2H260.016ZM265.562 153.95C267.608 159.011 270.804 162.897 275.168 165.494C279.509 168.076 284.863 169.3 291.116 169.3V165.3C285.369 165.3 280.773 164.174 277.214 162.056C273.678 159.953 271.024 156.789 269.27 152.45L265.562 153.95ZM291.116 169.3C297.367 169.3 302.703 168.076 306.998 165.488C311.321 162.883 314.442 158.985 316.384 153.915L312.648 152.485C310.99 156.815 308.411 159.967 304.934 162.062C301.429 164.174 296.865 165.3 291.116 165.3V169.3ZM316.376 153.936C320.314 143.986 322.216 129.686 322.216 111.2H318.216C318.216 129.514 316.318 143.214 312.656 152.464L316.376 153.936ZM404.884 188H402.884V190H404.884V188ZM404.884 139.4L403.246 138.252L402.884 138.769V139.4H404.884ZM496.984 7.99999V5.99999H495.943L495.346 6.85206L496.984 7.99999ZM561.484 7.99999H563.484V5.99999H561.484V7.99999ZM561.484 137H559.484V139H561.484V137ZM584.584 137H586.584V135H584.584V137ZM584.584 188V190H586.584V188H584.584ZM561.484 188V186H559.484V188H561.484ZM561.484 224V226H563.484V224H561.484ZM502.084 224H500.084V226H502.084V224ZM502.084 188H504.084V186H502.084V188ZM506.584 74.3H508.584V67.6413L504.915 73.198L506.584 74.3ZM465.184 137L463.515 135.898L461.467 139H465.184V137ZM506.584 137V139H508.584V137H506.584ZM406.884 188V139.4H402.884V188H406.884ZM406.522 140.548L498.622 9.14792L495.346 6.85206L403.246 138.252L406.522 140.548ZM496.984 9.99999H561.484V5.99999H496.984V9.99999ZM559.484 7.99999V137H563.484V7.99999H559.484ZM561.484 139H584.584V135H561.484V139ZM582.584 137V188H586.584V137H582.584ZM584.584 186H561.484V190H584.584V186ZM559.484 188V224H563.484V188H559.484ZM561.484 222H502.084V226H561.484V222ZM504.084 224V188H500.084V224H504.084ZM502.084 186H404.884V190H502.084V186ZM504.915 73.198L463.515 135.898L466.853 138.102L508.253 75.402L504.915 73.198ZM465.184 139H506.584V135H465.184V139ZM508.584 137V74.3H504.584V137H508.584Z" fill="url(#paint0_linear_249_9783)"/>
<path d="M0.294141 188H-1.70586V190H0.294141V188ZM0.294141 139.4L-1.34362 138.252L-1.70586 138.769V139.4H0.294141ZM92.3941 7.99999V5.99999H91.3536L90.7564 6.85206L92.3941 7.99999ZM156.894 7.99999H158.894V5.99999H156.894V7.99999ZM156.894 137H154.894V139H156.894V137ZM179.994 137H181.994V135H179.994V137ZM179.994 188V190H181.994V188H179.994ZM156.894 188V186H154.894V188H156.894ZM156.894 224V226H158.894V224H156.894ZM97.4941 224H95.4941V226H97.4941V224ZM97.4941 188H99.4941V186H97.4941V188ZM101.994 74.3H103.994V67.6413L100.325 73.198L101.994 74.3ZM60.5941 137L58.9251 135.898L56.8769 139H60.5941V137ZM101.994 137V139H103.994V137H101.994ZM2.29414 188V139.4H-1.70586V188H2.29414ZM1.9319 140.548L94.0319 9.14792L90.7564 6.85206L-1.34362 138.252L1.9319 140.548ZM92.3941 9.99999H156.894V5.99999H92.3941V9.99999ZM154.894 7.99999V137H158.894V7.99999H154.894ZM156.894 139H179.994V135H156.894V139ZM177.994 137V188H181.994V137H177.994ZM179.994 186H156.894V190H179.994V186ZM154.894 188V224H158.894V188H154.894ZM156.894 222H97.4941V226H156.894V222ZM99.4941 224V188H95.4941V224H99.4941ZM97.4941 186H0.294141V190H97.4941V186ZM100.325 73.198L58.9251 135.898L62.2631 138.102L103.663 75.402L100.325 73.198ZM60.5941 139H101.994V135H60.5941V139ZM103.994 137V74.3H99.9941V137H103.994ZM225.116 29.9L226.749 31.0547L226.749 31.0547L225.116 29.9ZM357.116 29.9L355.483 31.0547L355.491 31.0656L357.116 29.9ZM357.416 193.1L355.783 191.945L355.783 191.945L357.416 193.1ZM224.816 193.1L223.175 194.244L223.183 194.255L224.816 193.1ZM314.516 70.1L312.656 70.8361L312.659 70.8428L312.662 70.8496L314.516 70.1ZM267.716 70.1L269.57 70.8496L269.573 70.8428L269.576 70.8361L267.716 70.1ZM267.416 153.2L265.543 153.902L265.552 153.926L265.562 153.95L267.416 153.2ZM314.516 153.2L312.656 152.464L312.652 152.474L312.648 152.485L314.516 153.2ZM206.116 111.2C206.116 77.0466 213.069 50.4023 226.749 31.0547L223.483 28.7453C209.163 48.9976 202.116 76.5534 202.116 111.2H206.116ZM226.749 31.0547C240.284 11.912 261.592 2.19998 291.116 2.19998V-1.80002C260.64 -1.80002 237.948 8.28796 223.483 28.7453L226.749 31.0547ZM291.116 2.19998C320.64 2.19998 341.948 11.912 355.483 31.0547L358.749 28.7453C344.284 8.28796 321.592 -1.80002 291.116 -1.80002V2.19998ZM355.491 31.0656C369.365 50.4116 376.416 77.0515 376.416 111.2H380.416C380.416 76.5485 373.267 48.9883 358.741 28.7344L355.491 31.0656ZM376.416 111.2C376.416 145.759 369.461 172.601 355.783 191.945L359.049 194.255C373.371 173.999 380.416 146.241 380.416 111.2H376.416ZM355.783 191.945C342.25 211.084 320.846 220.8 291.116 220.8V224.8C321.786 224.8 344.582 214.716 359.049 194.255L355.783 191.945ZM291.116 220.8C261.386 220.8 239.982 211.084 226.449 191.945L223.183 194.255C237.65 214.716 260.446 224.8 291.116 224.8V220.8ZM226.457 191.956C212.973 172.61 206.116 145.764 206.116 111.2H202.116C202.116 146.236 209.059 173.99 223.175 194.244L226.457 191.956ZM322.216 111.2C322.216 93.111 320.314 79.1062 316.37 69.3504L312.662 70.8496C316.318 79.8938 318.216 93.2889 318.216 111.2H322.216ZM316.376 69.3639C314.338 64.2159 311.178 60.2515 306.864 57.5967C302.57 54.9542 297.281 53.7 291.116 53.7V57.7C296.751 57.7 301.262 58.8458 304.768 61.0033C308.254 63.1485 310.894 66.3841 312.656 70.8361L316.376 69.3639ZM291.116 53.7C284.951 53.7 279.662 54.9542 275.368 57.5967C271.054 60.2515 267.894 64.2159 265.856 69.3639L269.576 70.8361C271.338 66.3841 273.978 63.1485 277.464 61.0033C280.97 58.8458 285.481 57.7 291.116 57.7V53.7ZM265.862 69.3504C261.918 79.1062 260.016 93.111 260.016 111.2H264.016C264.016 93.2889 265.914 79.8938 269.57 70.8496L265.862 69.3504ZM260.016 111.2C260.016 129.68 261.817 143.966 265.543 153.902L269.289 152.498C265.815 143.234 264.016 129.52 264.016 111.2H260.016ZM265.562 153.95C267.608 159.011 270.804 162.897 275.168 165.494C279.509 168.076 284.863 169.3 291.116 169.3V165.3C285.369 165.3 280.773 164.174 277.214 162.056C273.678 159.953 271.024 156.789 269.27 152.45L265.562 153.95ZM291.116 169.3C297.367 169.3 302.703 168.076 306.998 165.488C311.321 162.883 314.442 158.985 316.384 153.915L312.648 152.485C310.99 156.815 308.411 159.967 304.934 162.062C301.429 164.174 296.865 165.3 291.116 165.3V169.3ZM316.376 153.936C320.314 143.986 322.216 129.686 322.216 111.2H318.216C318.216 129.514 316.318 143.214 312.656 152.464L316.376 153.936ZM404.884 188H402.884V190H404.884V188ZM404.884 139.4L403.246 138.252L402.884 138.769V139.4H404.884ZM496.984 7.99999V5.99999H495.943L495.346 6.85206L496.984 7.99999ZM561.484 7.99999H563.484V5.99999H561.484V7.99999ZM561.484 137H559.484V139H561.484V137ZM584.584 137H586.584V135H584.584V137ZM584.584 188V190H586.584V188H584.584ZM561.484 188V186H559.484V188H561.484ZM561.484 224V226H563.484V224H561.484ZM502.084 224H500.084V226H502.084V224ZM502.084 188H504.084V186H502.084V188ZM506.584 74.3H508.584V67.6413L504.915 73.198L506.584 74.3ZM465.184 137L463.515 135.898L461.467 139H465.184V137ZM506.584 137V139H508.584V137H506.584ZM406.884 188V139.4H402.884V188H406.884ZM406.522 140.548L498.622 9.14792L495.346 6.85206L403.246 138.252L406.522 140.548ZM496.984 9.99999H561.484V5.99999H496.984V9.99999ZM559.484 7.99999V137H563.484V7.99999H559.484ZM561.484 139H584.584V135H561.484V139ZM582.584 137V188H586.584V137H582.584ZM584.584 186H561.484V190H584.584V186ZM559.484 188V224H563.484V188H559.484ZM561.484 222H502.084V226H561.484V222ZM504.084 224V188H500.084V224H504.084ZM502.084 186H404.884V190H502.084V186ZM504.915 73.198L463.515 135.898L466.853 138.102L508.253 75.402L504.915 73.198ZM465.184 139H506.584V135H465.184V139ZM508.584 137V74.3H504.584V137H508.584Z" fill="url(#paint1_linear_249_9783)"/>
<defs>
<linearGradient id="paint0_linear_249_9783" x1="278.74" y1="-97" x2="282.969" y2="299.086" gradientUnits="userSpaceOnUse">
<stop stop-color="#C628F4"/>
<stop offset="1" stop-color="#7C74FE"/>
</linearGradient>
<linearGradient id="paint1_linear_249_9783" x1="291" y1="-61" x2="291" y2="299" gradientUnits="userSpaceOnUse">
<stop stop-color="white" stop-opacity="0.62"/>
<stop offset="1" stop-color="#7C74FE" stop-opacity="0"/>
</linearGradient>
</defs>
</svg>
