<svg xmlns="http://www.w3.org/2000/svg" style="fill:var(--primary, #000)" viewBox="0 0 24 24"><style>:root { --primary : #323232; }</style><title>Envelope Icon</title><desc>Envelope Icon used as e-mail icon</desc><path d="M21.151 2.886H2.85C1.278 2.886 0 4.113 0 5.62v12.76c0 1.508 1.278 2.735 2.849 2.735H21.15c1.571 0 2.849-1.227 2.849-2.735V5.62c0-1.508-1.278-2.735-2.849-2.735Zm0 15.813H2.85c-.231 0-.434-.15-.434-.32V7.309l8.278 6.988a.943.943 0 0 0 .608.222H12.7a.944.944 0 0 0 .608-.222l8.278-6.989v11.07c0 .171-.203.321-.434.321zM12 12.121l-8.051-6.82H20.05Z" style="stroke-width:.062808"/></svg>