<svg xmlns="http://www.w3.org/2000/svg" viewBox="0 0 522 522"><path d="M261 0c144.146 0 261 116.854 261 261S405.146 522 261 522 0 405.146 0 261C0 116.983 116.644.21 260.612 0H261zM143.614 284.728H48.758c9.801 88.664 73.886 160.968 158.283 182.942-36.085-54.271-58-117.068-63.427-182.942zm329.628 0h-94.794a386.773 386.773 0 0 1-63.482 182.936c84.394-21.972 148.475-94.274 158.276-182.936zm-142.36 0H191.185A339.313 339.313 0 0 0 261 461.477c39.766-51.225 64.037-112.75 69.881-176.75zM207.034 54.336l-.63.161c-84.082 22.17-147.869 94.334-157.646 182.775h94.794a386.773 386.773 0 0 1 63.482-182.936zM261 60.523c-39.766 51.224-64.037 112.748-69.881 176.75h139.697A339.313 339.313 0 0 0 261 60.523zm53.96-6.193 1.256 1.906c35.338 53.83 56.807 115.93 62.17 181.036h94.857C463.441 148.608 399.356 76.304 314.96 54.33zM261.062 0l.324.003L261 0h.062z"/></svg>