<svg width="35" height="51" viewBox="0 0 35 51" fill="none" xmlns="http://www.w3.org/2000/svg">
<path fill-rule="evenodd" clip-rule="evenodd" d="M13.4491 0.0678911C12.8163 0.324637 12.801 0.405702 12.7984 3.53093C12.7958 6.67014 12.8066 6.72819 13.4427 6.99474C13.8604 7.16986 14.2666 7.0671 14.6013 6.70164L14.8642 6.41461V3.53247V0.650332L14.5648 0.362195C14.2081 0.0189868 13.8213 -0.0831163 13.4491 0.0678911ZM4.09648 4.08848C3.82196 4.3222 3.76155 4.4557 3.76155 4.82875C3.76155 5.27252 3.81238 5.3352 5.80563 7.35226C7.47483 9.04121 7.90512 9.42066 8.15133 9.42066C8.86843 9.42066 9.40876 8.79162 9.26421 8.12525C9.21653 7.90607 8.57486 7.18253 7.2063 5.80496C5.36381 3.95047 5.18878 3.80331 4.82446 3.80331C4.56039 3.80331 4.32147 3.89683 4.09648 4.08848ZM20.3914 5.87171C18.4822 7.80374 18.3474 7.96676 18.3474 8.34378C18.3474 8.91388 18.7088 9.30666 19.3085 9.38805L19.7795 9.45194L21.8391 7.3679C23.7895 5.39423 23.8987 5.26162 23.8987 4.86554C23.8987 4.28145 23.4262 3.80331 22.8489 3.80331C22.4576 3.80331 22.3267 3.91346 20.3914 5.87171ZM12.9848 10.4216C11.8878 10.6831 10.8204 11.578 10.3339 12.6441L10.0204 13.3308L9.98969 21.0848L9.95888 28.8389L8.99698 27.8864C7.73368 26.6354 7.32332 26.4449 5.88411 26.4409C4.91121 26.4382 4.73782 26.4691 4.25137 26.731C3.38068 27.1999 2.85146 27.7341 2.4485 28.5507C2.10715 29.2425 2.0783 29.3797 2.08364 30.2929C2.09039 31.4344 2.24724 31.878 3.01843 32.9364C3.50075 33.5984 4.23951 34.6805 6.17659 37.5624C6.74663 38.4105 8.11487 40.4427 9.21707 42.0783C10.3193 43.714 11.3315 45.2427 11.4666 45.4753C11.9427 46.2962 12.1608 47.1864 12.213 48.5217C12.2701 49.9764 12.4142 50.383 13.005 50.7548L13.3947 51H22.1763C30.8759 51 30.9607 50.9979 31.2585 50.7729C31.9825 50.226 32.0022 50.1502 32.0699 47.6604L32.1318 45.3827L32.7915 43.5098C33.1544 42.4796 33.7525 40.8559 34.1205 39.9015C34.4885 38.9469 34.8373 37.9119 34.8955 37.6014C34.9556 37.2808 35.0008 34.5791 35 31.3519C34.9987 25.4193 34.9763 25.089 34.5151 24.1868C34.1725 23.5168 33.2579 22.6949 32.5488 22.4197C31.6465 22.0695 30.4802 22.0675 29.6916 22.4148C29.3754 22.554 29.106 22.6488 29.093 22.6254C29.0798 22.602 28.9286 22.2984 28.7569 21.9507C28.1622 20.7459 26.9692 19.9804 25.5669 19.9037C24.8055 19.8622 23.8415 20.0715 23.4879 20.3552C23.4116 20.4163 23.3381 20.4469 23.3246 20.4233C23.3111 20.3995 23.202 20.1817 23.0823 19.9394C22.7677 19.3027 21.9684 18.4711 21.3823 18.1705C20.4652 17.7003 19.1558 17.631 18.2042 18.0024C18.0357 18.0682 17.8554 18.122 17.8033 18.122C17.7514 18.122 17.6919 16.9944 17.671 15.6163C17.6272 12.7333 17.5583 12.4668 16.609 11.5062C15.6153 10.5007 14.3019 10.1076 12.9848 10.4216ZM14.6247 12.55C15.0659 12.7831 15.5083 13.3007 15.6283 13.7239C15.693 13.9523 15.735 16.8838 15.735 21.1778V28.2553H16.7146H17.6943L17.6949 24.9234C17.6952 22.8447 17.7404 21.4278 17.815 21.1562C18.0507 20.2965 19.0503 19.6558 19.903 19.8177C20.418 19.9155 20.9563 20.3011 21.226 20.7658C21.4349 21.1257 21.4514 21.3506 21.4769 24.1799C21.4919 25.8459 21.5042 27.6178 21.5041 28.1176L21.504 29.0263H22.4836H23.4633L23.4657 26.2451C23.4684 23.0495 23.5261 22.7803 24.3231 22.2467C24.7147 21.9844 24.8447 21.9562 25.4746 21.9968C26.1231 22.0386 26.2215 22.0791 26.6102 22.4631C27.2389 23.0843 27.2846 23.4025 27.2659 27.0283C27.257 28.7633 27.2549 30.2448 27.2614 30.3205C27.2697 30.4195 27.5462 30.4582 28.2452 30.4582H29.2176L29.2521 27.9436L29.2867 25.4289L29.5933 25.0224C30.0094 24.4708 30.3066 24.2936 30.9329 24.2239C31.6762 24.1411 32.3423 24.4977 32.6835 25.161L32.9332 25.6465L32.9284 31.4943C32.9247 36.0921 32.8926 37.4245 32.7785 37.7277C32.6986 37.9397 32.3399 38.8814 31.9813 39.8204C31.6227 40.7594 31.0438 42.3702 30.6947 43.4001L30.0601 45.2725L30.0146 47.1174L29.9691 48.9623H22.0901H14.2111V48.0988C14.2111 47.0314 13.9156 45.8206 13.4103 44.817C13.0578 44.1172 6.43271 34.2042 4.60905 31.648C3.82 30.542 3.94202 29.3786 4.91818 28.7018C5.35717 28.3975 6.12075 28.3351 6.64605 28.5608C6.82566 28.6379 8.09919 29.8393 9.47614 31.2305L11.9797 33.7599L12.0341 23.6556L12.0885 13.5511L12.3421 13.1912C12.8348 12.4924 13.9324 12.1839 14.6247 12.55ZM0.472775 13.1163C0.0433648 13.3521 -0.131664 14.0043 0.108349 14.4742C0.207619 14.6684 0.412147 14.8747 0.562795 14.9326C0.713442 14.9905 2.07177 15.038 3.58119 15.038C6.58597 15.038 6.65302 15.0248 6.91546 14.3836C7.08853 13.961 6.98697 13.55 6.62581 13.2113L6.34215 12.9453L3.55517 12.9497C1.31309 12.9532 0.710393 12.9858 0.472775 13.1163ZM21.1652 13.1105C20.5742 13.4355 20.4996 14.252 21.0136 14.7721L21.2764 15.038H24.1153C27.2623 15.038 27.3734 15.0155 27.5956 14.3341C27.7425 13.8839 27.5778 13.3587 27.2142 13.1177C26.8483 12.8751 21.6048 12.8687 21.1652 13.1105Z" fill="white"/>
</svg>
