<svg xmlns="http://www.w3.org/2000/svg" xmlns:xlink="http://www.w3.org/1999/xlink" version="1.2" id="svg-2627" x="0px" y="0px" viewBox="0 0 100 100" overflow="visible" xml:space="preserve"> <path display="none" d="M49.99,96.21c-9.16,0-15.53-2.63-15.93-2.8l0,0c-2.37-1.04-3.35-13.66-3.59-17.62 c-0.76-12.09,1.75-22.44,7.24-29.94c7.17-9.79,0.71-22.53-1.44-26.2c-0.2-0.34-0.13-0.77,0.17-1.04c0,0,0.13-0.12,0.37-0.3 c0.37-0.29,1.14-0.88,2.16-1.46l-4.51-9.6c-0.18-0.39-0.04-0.85,0.34-1.07l3.97-2.27c0.22-0.12,0.48-0.14,0.71-0.05 c0.23,0.09,0.41,0.28,0.49,0.52l3.52,11.02c2.52-0.18,4.81,0.81,6.8,2.92c0.11,0.12,0.28,0.1,0.36,0.01 c0.84-1.07,2.68-2.76,5.77-2.61l3.62-11.34c0.08-0.24,0.25-0.43,0.49-0.52c0.23-0.09,0.49-0.07,0.71,0.05l3.97,2.27 c0.37,0.21,0.52,0.68,0.34,1.07l-4.59,9.78c0.83,0.41,1.68,0.92,2.55,1.52c0.35,0.25,0.46,0.72,0.24,1.1 c-2.15,3.67-8.62,16.41-1.44,26.2l0,0c5.49,7.5,8,17.85,7.24,29.94c-0.25,3.98-1.24,16.72-3.63,17.63l0,0 C60.15,95.52,54.7,96.21,49.99,96.21z M34.65,91.87c0.02,0.01,0.04,0.01,0.05,0.02c0.14,0.06,14.34,5.89,30.63-0.02 c0.01,0,0.01,0,0.01-0.01c1.07-1.31,2.27-12,2.54-16.18c0.51-8.16-0.28-19.78-6.93-28.86c-7.37-10.06-1.6-22.74,0.96-27.34 c-0.83-0.53-1.63-0.97-2.4-1.31c-0.21-0.09-0.36-0.26-0.44-0.47c-0.08-0.21-0.07-0.44,0.03-0.64l4.62-9.84L61.3,5.86l-3.51,11 c-0.12,0.38-0.51,0.62-0.89,0.57c-2.58-0.33-4.12,0.87-4.96,1.93c-0.67,0.85-2.08,0.92-2.85,0.1c-1.78-1.89-3.82-2.67-6.06-2.34 c-0.4,0.06-0.79-0.18-0.91-0.57L38.7,5.86l-2.42,1.38l4.52,9.63c0.19,0.41,0.02,0.89-0.38,1.09c-1.04,0.51-1.88,1.12-2.37,1.48 c2.54,4.55,8.39,17.29,0.99,27.39c-6.65,9.08-7.44,20.71-6.93,28.86C32.38,79.87,33.58,90.56,34.65,91.87z"></path> <g id="XMLID_5_"> <g id="XMLID_2279_"> <g id="XMLID_2278_"> <g id="XMLID_2275_"> <path id="XMLID_420_" fill="#EF9300" d="M37.25,71.85c-2.33,0-4.23-1.9-4.23-4.23c0-2.33,1.9-4.23,4.23-4.23 c2.33,0,4.23,1.9,4.23,4.23C41.48,69.95,39.58,71.85,37.25,71.85z M37.25,66.29c-0.73,0-1.32,0.59-1.32,1.32 c0,0.73,0.59,1.32,1.32,1.32c0.73,0,1.32-0.59,1.32-1.32C38.57,66.89,37.98,66.29,37.25,66.29z"></path> </g> <g id="XMLID_2277_"> <path id="XMLID_417_" fill="#EF9300" d="M82.58,71.85c-2.33,0-4.23-1.9-4.23-4.23c0-2.33,1.9-4.23,4.23-4.23 c2.33,0,4.23,1.9,4.23,4.23C86.81,69.95,84.91,71.85,82.58,71.85z M82.58,66.29c-0.73,0-1.32,0.59-1.32,1.32 c0,0.73,0.59,1.32,1.32,1.32s1.32-0.59,1.32-1.32C83.9,66.89,83.31,66.29,82.58,66.29z"></path> </g> </g> </g> <g id="XMLID_1_"> <path fill="#EF9300" d="M99.95,55.46c-0.01-0.06-0.02-0.12-0.05-0.18c-0.01-0.02-0.02-0.04-0.03-0.07 c-0.03-0.07-0.07-0.14-0.11-0.21c-0.02-0.02-0.03-0.05-0.05-0.07l-13.87-18.7c-0.02-0.03-0.03-0.05-0.05-0.07 c-0.04-0.06-0.09-0.11-0.15-0.16l-0.03-0.03c-0.04-0.05-0.08-0.09-0.13-0.11c-0.05-0.05-0.1-0.08-0.15-0.1 c-0.02-0.02-0.05-0.03-0.08-0.05c-0.09-0.04-0.17-0.07-0.26-0.09c-0.02,0-0.04-0.01-0.06-0.01c-0.02-0.01-0.03-0.01-0.05-0.01 c-0.08-0.02-0.16-0.03-0.24-0.03c-0.01,0-0.01,0-0.02,0H74.5V24.22c0-0.81-0.65-1.46-1.46-1.46H7.5c-0.81,0-1.46,0.65-1.46,1.46 c0,0.8,0.65,1.45,1.46,1.45h8.47v5.86H1.45c-0.8,0-1.45,0.65-1.45,1.46c0,0.8,0.65,1.45,1.45,1.45h14.52v5.1H9.7 c-0.8,0-1.45,0.65-1.45,1.46c0,0.8,0.65,1.45,1.45,1.45h6.27v25.17c0,0.8,0.65,1.45,1.45,1.45h10.32c0.7,4.62,4.7,8.17,9.51,8.17 c5.02,0,9.14-3.86,9.58-8.76H73c0.44,4.9,4.56,8.76,9.58,8.76c5.01,0,9.14-3.86,9.58-8.76h6.39c0.8,0,1.45-0.65,1.45-1.45V55.8 C100,55.69,99.99,55.58,99.95,55.46z M37.25,74.33c-3.7,0-6.71-3.01-6.71-6.71c0-3.71,3.01-6.72,6.71-6.72s6.71,3.01,6.71,6.72 C43.96,71.32,40.95,74.33,37.25,74.33z M71.59,65.58H46.65c-0.93-4.33-4.79-7.59-9.4-7.59c-4.81,0-8.81,3.55-9.51,8.17h-8.86 V42.45h14.99c0.8,0,1.45-0.65,1.45-1.45c0-0.81-0.65-1.46-1.45-1.46H18.88v-5.1h6.74c0.81,0,1.46-0.65,1.46-1.45 c0-0.81-0.65-1.46-1.46-1.46h-6.74v-5.86h52.71V65.58z M74.5,38.48h9.4l12.04,16.25H74.5V38.48z M82.58,74.33 c-3.7,0-6.71-3.01-6.71-6.71c0-3.71,3.01-6.72,6.71-6.72s6.71,3.01,6.71,6.72C89.29,71.32,86.28,74.33,82.58,74.33z M97.09,65.58 h-5.11c-0.93-4.33-4.8-7.59-9.4-7.59c-3.39,0-6.37,1.76-8.08,4.42v-4.77h22.59V65.58z"></path> </g> </g> </svg>
