<svg width="24" height="17" viewBox="0 0 24 17" fill="none" xmlns="http://www.w3.org/2000/svg">
<g clip-path="url(#clip0_9_531)">
<path d="M23.2418 1.72754L16.1304 8.79312L23.2418 15.8587C23.3704 15.59 23.4484 15.293 23.4484 14.9758V2.61047C23.4484 2.29323 23.3704 1.99623 23.2418 1.72754Z" fill="#214774" fill-opacity="0.5"/>
<path d="M21.3873 0.549561H2.06078C1.74355 0.549561 1.44655 0.627554 1.17786 0.756107L10.2669 9.7994C11.0706 10.6031 12.3775 10.6031 13.1811 9.7994L22.2702 0.756107C22.0015 0.627554 21.7045 0.549561 21.3873 0.549561Z" fill="#214774" fill-opacity="0.5"/>
<path d="M0.206546 1.72754C0.077993 1.99623 0 2.29323 0 2.61047V14.9758C0 15.293 0.077993 15.59 0.206546 15.8587L7.31792 8.79312L0.206546 1.72754Z" fill="#214774" fill-opacity="0.5"/>
<path d="M15.1588 9.76465L14.1525 10.771C12.8135 12.11 10.6346 12.11 9.29549 10.771L8.28923 9.76465L1.17786 16.8302C1.44655 16.9588 1.74355 17.0368 2.06078 17.0368H21.3873C21.7045 17.0368 22.0015 16.9588 22.2702 16.8302L15.1588 9.76465Z" fill="#214774" fill-opacity="0.5"/>
</g>
<defs>
<clipPath id="clip0_9_531">
<rect width="23.4483" height="17" fill="white"/>
</clipPath>
</defs>
</svg>
