<svg fill="none" xmlns="http://www.w3.org/2000/svg" viewBox="0 0 177 46"><style>:root { --primary : #ffffff; }</style><title>Network Logo</title><desc>Network Logo for Men&apos;s Health</desc><path style="fill:var(--primary, #000);fill-opacity:var(--secondary, 1);" fill-rule="evenodd" clip-rule="evenodd" d="M32.054.201h5.07v4.402h2.37V.2h5.07v13.04h-5.07V8.367h-2.37v4.872h-5.07V.201zM94.373 13.24h5.072V8.514c.163-.015.333-.015.464-.015 1.217 0 1.385.555 1.589 1.962l.131.967c.076.584.223 1.178.393 1.81h5.139c-.223-.964-.391-1.74-.468-2.32l-.168-1.393c-.241-1.88-.674-2.678-2.485-2.973 1.759-.454 2.653-1.464 2.653-3.04 0-2.606-1.737-3.312-5.438-3.312h-6.882v13.04zm5.072-7.66V3.118c.216-.02.41-.02.576-.02 1.14 0 1.644.346 1.644 1.158 0 .833-.634 1.336-1.85 1.336-.112 0-.246 0-.37-.012zm19.951 3.476v.104c0 .892.41 1.302 1.286 1.302.791 0 1.256-.376 1.256-.936 0-.419-.188-.741-.528-.903-.69-.328-1.905-.512-3.491-1.001-2.17-.67-3.182-1.699-3.182-3.526 0-2.555 2.135-4.096 6.059-4.096 3.568 0 5.455 1.285 5.455 3.584v.273h-4.465c-.058-.78-.427-1.157-1.176-1.157-.691 0-1.122.377-1.122.868 0 .91.935.873 2.636 1.326 3.127.807 4.618 1.641 4.618 4.01 0 2.76-2.279 4.552-6.171 4.552-3.945 0-6.039-1.443-6.039-3.93 0-.143 0-.301.022-.47h4.842zM53.916.201h10.075v3.346h-4.99v1.415h4.635v3.35h-4.635v1.54h5.157v3.387H53.916V.201zm90.926 3.476h-3.236v9.562h-5.193V3.677h-3.257V.201h11.686v3.476zm-73.37 9.583h5.11l.496-2.087h3.912l.468 2.088h5.552L82.766.2h-6.842l-4.452 13.06zm8.784-5.268h-2.39l1.24-5.149 1.15 5.15zM177 20.375H0v-.75h177v.75zM32 34.612v-5.517h3.182v.798h-2.169v1.573h2.068v.783h-2.068v2.363H32zm11.63 0h-1.114l-.56-1.328h-2.63l-.56 1.328H37.71l2.386-5.517h1.106l2.428 5.517zm-2.596-3.62a7.133 7.133 0 0 1-.096-.253l-.113-.308a5.654 5.654 0 0 1-.105-.309c-.03-.1-.057-.184-.08-.253h-.016a8.301 8.301 0 0 1-.088.253l-.109.309a8.134 8.134 0 0 1-.113.308l-.1.253-.611 1.55h2.05l-.619-1.55zm8.65-.996a3.085 3.085 0 0 0-.603-.186 2.933 2.933 0 0 0-.536-.051c-.313 0-.563.064-.75.194-.187.129-.28.296-.28.502 0 .09.014.172.042.248a.585.585 0 0 0 .163.226c.081.074.191.147.33.221.14.074.322.153.545.237.525.195.904.42 1.139.672.234.253.351.575.351.965a1.51 1.51 0 0 1-.574 1.221c-.18.145-.4.258-.657.34a2.836 2.836 0 0 1-.862.122c-.268 0-.52-.018-.758-.055a3.633 3.633 0 0 1-.699-.182l.1-.854a2.9 2.9 0 0 0 1.29.308c.335 0 .607-.068.817-.205a.652.652 0 0 0 .314-.577c0-.11-.017-.21-.05-.3a.659.659 0 0 0-.18-.253 1.67 1.67 0 0 0-.348-.233 5.02 5.02 0 0 0-.553-.242 4.386 4.386 0 0 1-.678-.312 1.883 1.883 0 0 1-.448-.351 1.186 1.186 0 0 1-.247-.408 1.505 1.505 0 0 1-.075-.494c0-.232.047-.444.142-.636.095-.192.229-.356.402-.49.173-.134.382-.239.628-.312.245-.074.516-.111.812-.111.235 0 .46.016.674.047.215.032.431.085.649.159l-.1.79zm8.49 4.616H57.16v-2.45h-2.57v2.45h-1.022v-5.517h1.022v2.26h2.57v-2.26h1.014v5.517zm4.864 0h-1.013v-5.517h1.013v5.517zM69.485 29c.419 0 .8.067 1.143.202.343.134.636.324.88.569.242.245.43.541.56.889.132.348.197.738.197 1.17 0 .443-.067.842-.2 1.198a2.504 2.504 0 0 1-.574.905 2.547 2.547 0 0 1-.896.573 3.251 3.251 0 0 1-1.177.201c-.43 0-.819-.067-1.168-.201a2.576 2.576 0 0 1-.896-.57 2.48 2.48 0 0 1-.573-.893 3.29 3.29 0 0 1-.201-1.181c0-.448.067-.849.2-1.202a2.45 2.45 0 0 1 .579-.897 2.53 2.53 0 0 1 .912-.565A3.493 3.493 0 0 1 69.485 29zm-.067.751c-.262 0-.5.05-.711.15a1.63 1.63 0 0 0-.553.427 1.94 1.94 0 0 0-.36.664 2.785 2.785 0 0 0-.126.862c0 .316.042.604.126.865a1.9 1.9 0 0 0 .36.664c.156.182.342.323.557.423.215.1.456.15.724.15a1.62 1.62 0 0 0 1.264-.577c.157-.184.277-.405.36-.664.084-.258.126-.545.126-.861 0-.322-.042-.613-.126-.874a1.929 1.929 0 0 0-.355-.664 1.546 1.546 0 0 0-.557-.419 1.763 1.763 0 0 0-.729-.146zm10.215-.656h.93v5.517h-1.298l-1.775-3.138a181.5 181.5 0 0 1-.214-.387 11.303 11.303 0 0 1-.213-.407l-.189-.384a8.94 8.94 0 0 1-.146-.316h-.017a21.577 21.577 0 0 1 .03.79l.008.479c.002.16.004.299.004.415v2.948h-.938v-5.517h1.415l1.717 3.107c.055.1.115.212.18.335l.196.38c.067.129.13.255.189.38l.155.327h.016l-.016-.395-.017-.518a35.725 35.725 0 0 1-.017-1v-2.616zm13.924 2.514c-.017.4-.088.756-.213 1.067-.126.31-.29.587-.49.83l1.072 1.106H92.72l-.486-.53a2.61 2.61 0 0 1-.787.475 2.65 2.65 0 0 1-.904.142c-.301 0-.575-.036-.82-.11a1.91 1.91 0 0 1-.633-.316 1.405 1.405 0 0 1-.548-1.147c0-.716.452-1.246 1.356-1.588a2.769 2.769 0 0 1-.502-.633 1.305 1.305 0 0 1-.176-.64c0-.19.042-.361.126-.514.083-.153.198-.283.343-.391.145-.108.317-.19.515-.245.198-.056.414-.083.649-.083.229 0 .442.025.64.075.199.05.37.125.515.225a1.024 1.024 0 0 1 .469.885c0 .338-.117.623-.352.858-.234.235-.566.447-.996.636l1.18 1.273c.129-.184.221-.392.277-.624.056-.232.09-.483.1-.751h.871zm-2.847-.38a2.39 2.39 0 0 0 .628-.407.76.76 0 0 0 .252-.58c0-.196-.072-.34-.214-.432a.911.911 0 0 0-.507-.138.81.81 0 0 0-.502.158.507.507 0 0 0-.21.427c0 .137.041.282.122.435.081.152.225.332.431.537zm-.368.838c-.301.121-.512.27-.632.447a1 1 0 0 0-.18.573c0 .137.03.262.088.375.058.114.14.21.243.289.103.079.221.14.355.182.134.042.277.063.427.063.213 0 .41-.032.59-.095.182-.063.354-.171.516-.324l-1.407-1.51zm12.199 1.731h2.361v.814h-3.374v-5.517h1.013v4.703zm10.123-1.494c0 .754-.193 1.343-.578 1.767-.385.424-.977.636-1.775.636-.43 0-.791-.056-1.084-.17a1.722 1.722 0 0 1-.708-.486 1.918 1.918 0 0 1-.385-.759 3.867 3.867 0 0 1-.117-.988v-3.21h1.022v3.131c0 .269.022.51.067.724.044.213.117.393.217.541.101.148.233.26.398.336.165.076.37.114.615.114.252 0 .462-.038.633-.114a1.01 1.01 0 0 0 .414-.336c.106-.148.181-.328.226-.541.045-.214.067-.455.067-.724v-3.13h.988v3.21zm4.48-3.21.711 1.044.381.577c.126.19.236.364.331.522a19.414 19.414 0 0 1 .67-1.09l.703-1.052h1.097l-1.884 2.664 2.06 2.853h-1.231l-.687-1.004a24.337 24.337 0 0 1-.644-1.02 7.678 7.678 0 0 1-.143-.252 9.285 9.285 0 0 1-.163.253l-.226.34a43.155 43.155 0 0 1-.465.68l-.686 1.003h-1.156l2.085-2.853-1.968-2.664h1.215zm11.897 3.21c0 .754-.192 1.343-.577 1.767-.386.424-.977.636-1.775.636-.43 0-.792-.056-1.085-.17a1.712 1.712 0 0 1-.707-.486 1.905 1.905 0 0 1-.385-.759 3.821 3.821 0 0 1-.118-.988v-3.21h1.022v3.131c0 .269.022.51.067.724.045.213.117.393.218.541.1.148.233.26.397.336.165.076.37.114.616.114.251 0 .462-.038.632-.114a1.01 1.01 0 0 0 .414-.336c.106-.148.182-.328.226-.541.045-.214.067-.455.067-.724v-3.13h.988v3.21zm3.793-3.21h1.574c.358 0 .68.025.967.072.288.047.533.127.737.237.204.11.36.258.469.443.109.184.163.416.163.695 0 .375-.115.666-.347.874-.232.208-.54.35-.925.423v.016a.997.997 0 0 1 .469.268c.111.122.214.282.309.483l.947 2.008h-1.122l-.746-1.66a2.458 2.458 0 0 0-.18-.352.707.707 0 0 0-.217-.222.85.85 0 0 0-.319-.114 2.991 2.991 0 0 0-.481-.032h-.285v2.38h-1.013v-5.518zm1.013 2.38h.377c.491 0 .861-.062 1.11-.186.248-.123.372-.335.372-.636a.72.72 0 0 0-.1-.4.648.648 0 0 0-.289-.236 1.617 1.617 0 0 0-.465-.115 5.559 5.559 0 0 0-.628-.032h-.377v1.605zm6.908-2.38.712 1.115.205.329a26.95 26.95 0 0 1 .46.758c.07.119.127.213.172.281h.017c.039-.069.095-.162.167-.28l.23-.376.239-.387.201-.325.703-1.114H145l-2.202 3.257v2.26h-1.013V32.36l-2.236-3.265h1.206zM57.349 41.392a2.792 2.792 0 0 0-1.24-.268 2.45 2.45 0 0 0-.84.138 1.88 1.88 0 0 0-.658.4 1.78 1.78 0 0 0-.427.628c-.1.245-.15.52-.15.826 0 .316.052.6.158.85a1.847 1.847 0 0 0 1.118 1.043c.26.092.54.138.841.138.213 0 .418-.014.616-.043.198-.03.414-.089.649-.178l.05.846a3.11 3.11 0 0 1-.624.142 5.338 5.338 0 0 1-.707.048c-.47 0-.898-.062-1.285-.186a2.806 2.806 0 0 1-1.001-.55 2.52 2.52 0 0 1-.653-.889 2.932 2.932 0 0 1-.235-1.206 2.682 2.682 0 0 1 .892-2.027c.276-.245.604-.435.984-.57.38-.134.79-.2 1.23-.2.246 0 .48.014.7.043.22.029.442.083.665.162l-.083.854zm5.953-1.098c.419 0 .8.067 1.143.201.343.135.636.324.879.57.243.245.43.54.56.889.132.347.198.737.198 1.17 0 .442-.067.842-.201 1.197a2.505 2.505 0 0 1-.574.905 2.548 2.548 0 0 1-.896.573 3.251 3.251 0 0 1-1.176.202c-.43 0-.82-.067-1.168-.202a2.577 2.577 0 0 1-.896-.569 2.478 2.478 0 0 1-.574-.893 3.288 3.288 0 0 1-.2-1.182c0-.448.067-.848.2-1.201a2.46 2.46 0 0 1 .578-.898c.251-.245.556-.433.913-.565a3.494 3.494 0 0 1 1.214-.197zm-.067.75c-.262 0-.5.05-.712.15a1.63 1.63 0 0 0-.552.428 1.938 1.938 0 0 0-.36.664 2.784 2.784 0 0 0-.126.861c0 .316.042.605.126.866.083.26.203.482.36.664.156.182.342.323.556.423.215.1.457.15.725.15a1.619 1.619 0 0 0 1.264-.577c.156-.184.276-.406.36-.664.084-.258.126-.546.126-.862a2.85 2.85 0 0 0-.126-.873 1.93 1.93 0 0 0-.356-.664 1.547 1.547 0 0 0-.557-.42 1.763 1.763 0 0 0-.728-.145zm7.41 4.048h2.361v.814h-3.374v-5.517h1.013v4.703zm6.623 0h2.361v.814h-3.374v-5.517h1.013v4.703zm9.009.814h-3.4v-5.517h3.35v.798h-2.345v1.494h2.169v.775h-2.169v1.652h2.395v.798zm7.686-4.514a2.794 2.794 0 0 0-1.239-.268 2.45 2.45 0 0 0-.841.138 1.88 1.88 0 0 0-.658.4 1.782 1.782 0 0 0-.427.628c-.1.245-.15.52-.15.826 0 .316.053.6.159.85a1.847 1.847 0 0 0 1.117 1.043c.26.092.54.138.842.138.212 0 .417-.014.615-.043a3.09 3.09 0 0 0 .65-.178l.05.846c-.18.063-.387.11-.624.142a5.335 5.335 0 0 1-.708.048c-.469 0-.897-.062-1.285-.186a2.805 2.805 0 0 1-1-.55 2.52 2.52 0 0 1-.654-.889 2.934 2.934 0 0 1-.234-1.206 2.653 2.653 0 0 1 .892-2.028c.276-.244.604-.434.983-.568a3.65 3.65 0 0 1 1.231-.202c.246 0 .479.015.7.044.22.029.442.083.665.162l-.084.854zm4.547 4.514v-4.72l-1.708.025v-.822h4.429v.822l-1.7-.024v4.72H98.51zm6.966 0h-1.013v-5.517h1.013v5.517zm6.447-5.612c.419 0 .8.067 1.143.201.343.135.636.324.879.57.243.245.43.54.561.889.131.347.197.737.197 1.17 0 .442-.067.842-.201 1.197a2.499 2.499 0 0 1-.574.905 2.544 2.544 0 0 1-.896.573 3.247 3.247 0 0 1-1.176.202c-.43 0-.819-.067-1.168-.202a2.582 2.582 0 0 1-.896-.569 2.484 2.484 0 0 1-.573-.893 3.288 3.288 0 0 1-.201-1.182c0-.448.067-.848.201-1.201.134-.353.326-.652.577-.898.252-.245.556-.433.913-.565a3.492 3.492 0 0 1 1.214-.197zm-.067.75c-.262 0-.5.05-.712.15a1.634 1.634 0 0 0-.552.428 1.914 1.914 0 0 0-.36.664 2.775 2.775 0 0 0-.126.861c0 .316.042.605.126.866.083.26.203.482.36.664.156.182.342.323.557.423.214.1.456.15.724.15a1.616 1.616 0 0 0 1.264-.577c.156-.184.276-.406.36-.664.084-.258.126-.546.126-.862a2.84 2.84 0 0 0-.126-.873 1.927 1.927 0 0 0-.356-.664 1.546 1.546 0 0 0-.556-.42 1.766 1.766 0 0 0-.729-.145zm10.215-.655H123v5.517h-1.297l-1.776-3.138-.213-.387a12.202 12.202 0 0 1-.214-.408c-.067-.134-.129-.262-.188-.383a8.182 8.182 0 0 1-.146-.316h-.017a20.004 20.004 0 0 1 .029.79l.009.479c.002.16.004.299.004.415v2.948h-.938v-5.517h1.415l1.716 3.106c.056.1.116.212.18.336l.197.38c.067.129.13.255.189.379l.154.328h.017a30.04 30.04 0 0 1-.017-.395l-.016-.518a33.301 33.301 0 0 1-.017-1v-2.616z"/></svg>
