<svg width="30" height="30" viewBox="0 0 30 30" fill="none" xmlns="http://www.w3.org/2000/svg">
<path d="M25.9453 21.2004C25.4297 19.7297 24.2279 18.9844 23.0678 18.2637C22.0582 17.6361 21.1049 17.0432 20.4814 15.9785C18.7629 13.0295 17.8189 11.25 15.0035 11.25C12.1881 11.25 11.2412 13.0301 9.51854 15.9779C8.89452 17.0449 7.93651 17.6391 6.92577 18.2678C5.76561 18.9891 4.5662 19.7326 4.04881 21.2004C3.84745 21.7297 3.74612 22.2917 3.74998 22.858C3.74998 25.2451 5.65135 27.1875 7.7578 27.1875C9.86424 27.1875 12.6392 26.1252 15.0094 26.1252C17.3795 26.1252 20.1158 27.1875 22.2486 27.1875C24.3814 27.1875 26.25 25.2451 26.25 22.858C26.2517 22.2914 26.1483 21.7294 25.9453 21.2004Z" fill="#4798F8" fill-opacity="0.1"/>
<path d="M4.21875 16.875C6.03093 16.875 7.5 14.9862 7.5 12.6562C7.5 10.3263 6.03093 8.4375 4.21875 8.4375C2.40657 8.4375 0.9375 10.3263 0.9375 12.6562C0.9375 14.9862 2.40657 16.875 4.21875 16.875Z" fill="#4798F8" fill-opacity="0.1"/>
<path d="M10.7812 11.25C12.5934 11.25 14.0625 9.3612 14.0625 7.03125C14.0625 4.7013 12.5934 2.8125 10.7812 2.8125C8.96907 2.8125 7.5 4.7013 7.5 7.03125C7.5 9.3612 8.96907 11.25 10.7812 11.25Z" fill="#4798F8" fill-opacity="0.1"/>
<path d="M19.2188 11.25C21.0309 11.25 22.5 9.3612 22.5 7.03125C22.5 4.7013 21.0309 2.8125 19.2188 2.8125C17.4066 2.8125 15.9375 4.7013 15.9375 7.03125C15.9375 9.3612 17.4066 11.25 19.2188 11.25Z" fill="#4798F8" fill-opacity="0.1"/>
<path d="M25.7812 16.875C27.5934 16.875 29.0625 14.9862 29.0625 12.6562C29.0625 10.3263 27.5934 8.4375 25.7812 8.4375C23.9691 8.4375 22.5 10.3263 22.5 12.6562C22.5 14.9862 23.9691 16.875 25.7812 16.875Z" fill="#4798F8" fill-opacity="0.1"/>
</svg>
