<svg xmlns="http://www.w3.org/2000/svg" style="fill:var(--primary, #000)" viewBox="0 0 24 24"><style>:root { --id : social-button-icon;--primary : #ffffff; }</style><title>Twitter Icon</title><desc>Twitter bird icon</desc><path d="M21.545 7.346A13.536 13.536 0 0 1 7.548 21.262 14.468 14.468 0 0 1 0 19.16a10.286 10.286 0 0 0 7.29-1.937 4.904 4.904 0 0 1-4.599-3.25 5.204 5.204 0 0 0 2.223-.08 4.743 4.743 0 0 1-3.95-4.645 5.096 5.096 0 0 0 2.23.585 4.547 4.547 0 0 1-1.525-6.246 14.24 14.24 0 0 0 10.153 4.887 4.747 4.747 0 0 1 4.794-5.742 5.037 5.037 0 0 1 3.593 1.478 10.171 10.171 0 0 0 3.129-1.135 4.742 4.742 0 0 1-2.164 2.587A10.275 10.275 0 0 0 24 4.927a9.802 9.802 0 0 1-2.457 2.42z"/></svg>