<svg width="20" height="20" viewBox="0 0 20 20" fill="none" xmlns="http://www.w3.org/2000/svg">
<path d="M19.1007 2.10274H0.899336C0.403438 2.10274 0 2.50746 0 3.005V16.995C0 17.4925 0.403438 17.8973 0.899336 17.8973H19.1007C19.5965 17.8973 20 17.4926 20 16.995V3.005C20 2.50746 19.5966 2.10274 19.1007 2.10274ZM19.2481 16.995C19.2481 17.0779 19.182 17.1454 19.1007 17.1454H0.899336C0.818008 17.1454 0.751875 17.0779 0.751875 16.995V6.08032H19.2481V16.995ZM0.751875 5.32844V3.005C0.751875 2.92211 0.818008 2.85461 0.899336 2.85461H19.1007C19.182 2.85461 19.2481 2.92211 19.2481 3.005V5.32844H0.751875Z" fill="white"/>
<path d="M12.8704 4.94485C13.3479 4.94485 13.7349 4.55779 13.7349 4.08032C13.7349 3.60285 13.3479 3.21579 12.8704 3.21579C12.3929 3.21579 12.0059 3.60285 12.0059 4.08032C12.0059 4.55779 12.3929 4.94485 12.8704 4.94485Z" fill="white"/>
<path d="M15.3626 4.94485C15.84 4.94485 16.2271 4.55779 16.2271 4.08032C16.2271 3.60285 15.84 3.21579 15.3626 3.21579C14.8851 3.21579 14.498 3.60285 14.498 4.08032C14.498 4.55779 14.8851 4.94485 15.3626 4.94485Z" fill="white"/>
<path d="M17.8548 4.94485C18.3322 4.94485 18.7193 4.55779 18.7193 4.08032C18.7193 3.60285 18.3322 3.21579 17.8548 3.21579C17.3773 3.21579 16.9902 3.60285 16.9902 4.08032C16.9902 4.55779 17.3773 4.94485 17.8548 4.94485Z" fill="white"/>
</svg>
