<svg width="20" height="20" viewBox="0 0 20 20" fill="none" xmlns="http://www.w3.org/2000/svg">
<g clip-path="url(#clip0_83_359)">
<path d="M14.375 20H2.29167C1.0275 20 0 18.9725 0 17.7083V8.125C0 6.86083 1.0275 5.83333 2.29167 5.83333H14.375C15.6392 5.83333 16.6667 6.86083 16.6667 8.125V17.7083C16.6667 18.9725 15.6392 20 14.375 20ZM2.29167 7.08333C1.7175 7.08333 1.25 7.55083 1.25 8.125V17.7083C1.25 18.2825 1.7175 18.75 2.29167 18.75H14.375C14.9492 18.75 15.4167 18.2825 15.4167 17.7083V8.125C15.4167 7.55083 14.9492 7.08333 14.375 7.08333H2.29167Z" fill="white"/>
<path d="M16.0417 10H0.625C0.28 10 0 9.72 0 9.375C0 9.03 0.28 8.75 0.625 8.75H16.0417C16.3867 8.75 16.6667 9.03 16.6667 9.375C16.6667 9.72 16.3867 10 16.0417 10Z" fill="white"/>
<path d="M19.3757 14.1667C19.0307 14.1667 18.7507 13.8867 18.7507 13.5417V2.29167C18.7507 1.7175 18.2832 1.25 17.709 1.25H5.62565C5.05148 1.25 4.58398 1.7175 4.58398 2.29167V3.54167C4.58398 3.88667 4.30398 4.16667 3.95898 4.16667C3.61398 4.16667 3.33398 3.88667 3.33398 3.54167V2.29167C3.33398 1.0275 4.36148 0 5.62565 0H17.709C18.9732 0 20.0007 1.0275 20.0007 2.29167V13.5417C20.0007 13.8867 19.7207 14.1667 19.3757 14.1667Z" fill="white"/>
<path d="M19.3757 4.16667H3.95898C3.61398 4.16667 3.33398 3.88667 3.33398 3.54167C3.33398 3.19667 3.61398 2.91667 3.95898 2.91667H19.3757C19.7207 2.91667 20.0007 3.19667 20.0007 3.54167C20.0007 3.88667 19.7207 4.16667 19.3757 4.16667Z" fill="white"/>
</g>
<defs>
<clipPath id="clip0_83_359">
<rect width="20" height="20" fill="white"/>
</clipPath>
</defs>
</svg>
