<svg width="74" height="25" viewBox="0 0 74 25" fill="none" xmlns="http://www.w3.org/2000/svg">
<g clip-path="url(#clip0_1_320)">
<mask id="mask0_1_320" style="mask-type:luminance" maskUnits="userSpaceOnUse" x="0" y="0" width="74" height="25">
<path d="M0.359009 0H73.871V25H0.359009V0Z" fill="white"/>
</mask>
<g mask="url(#mask0_1_320)">
<path d="M6.01299 0.307H15.4L10.474 16.869C10.128 18.031 10.862 18.989 12.07 18.989C13.279 18.989 14.524 18.031 14.869 16.869L19.795 0.307H28.119L22.43 21.479C21.928 23.346 19.933 24.875 17.997 24.875H3.59599C1.29599 24.875 -0.100005 23.059 0.495995 20.838L6.01299 0.307ZM38.56 9.354H48.199L46.448 15.089H36.805L34.128 24.875H25.066L29.497 9.355L38.56 9.354ZM57.315 0.058H69.574C71.367 0.058 74.411 1.495 73.788 3.78L73.543 4.68H62.603C62.041 4.68 61.456 5.13 61.305 5.68L57.905 17.993C57.753 18.543 58.088 18.993 58.65 18.993H69.64L68.843 21.915C68.38 23.608 66.563 25 64.77 25H51.828C49.548 25 48.146 23.233 48.714 21.075L53.488 2.957C53.908 1.363 55.63 0.058 57.315 0.058ZM49.166 6.007H39.546L39.542 6.024H30.479L32.224 0H50.903L49.166 6.007Z" fill="#FA4031"/>
</g>
</g>
<defs>
<clipPath id="clip0_1_320">
<rect width="74" height="25" fill="white"/>
</clipPath>
</defs>
</svg>
