<svg width="34" height="25" viewBox="0 0 34 25" fill="none" xmlns="http://www.w3.org/2000/svg">
<g clip-path="url(#clip0_1_326)">
<mask id="mask0_1_326" style="mask-type:luminance" maskUnits="userSpaceOnUse" x="0" y="0" width="34" height="25">
<path d="M0.359009 0H33.692V25H0.359009V0Z" fill="white"/>
</mask>
<g mask="url(#mask0_1_326)">
<path d="M27.193 15.161C27.193 15.754 26.711 16.235 26.116 16.235C25.521 16.235 25.039 15.754 25.039 15.161C25.039 14.569 25.521 14.088 26.116 14.088C26.711 14.088 27.193 14.568 27.193 15.161Z" fill="#F3ED0E"/>
<path fill-rule="evenodd" clip-rule="evenodd" d="M1.642 11.096C3.452 7.15601 7.588 3.67301 12.704 1.77801C15.327 0.808006 18.102 0.294006 20.727 0.294006C26.547 0.294006 31.135 2.73901 32.701 6.67501C33.587 8.90101 33.447 11.401 32.296 13.905C30.485 17.845 26.35 21.328 21.234 23.221C18.61 24.193 15.836 24.706 13.21 24.706C7.39 24.706 2.803 22.261 1.237 18.326C0.350998 16.099 0.490997 13.6 1.642 11.096ZM22.409 8.78101C22.954 8.80801 23.36 9.16801 23.36 9.70201C23.36 10.235 22.936 10.623 22.4 10.638C22.3421 10.6421 22.284 10.6437 22.226 10.643H19.756V15.063L19.749 15.212C19.727 15.768 19.346 16.193 18.789 16.193C18.251 16.193 17.829 15.756 17.813 15.213L17.806 15.071V10.64H15.336C15.336 10.64 13.215 15.274 13.148 15.407C13.086 15.529 13.031 15.627 13.003 15.667C12.783 15.987 12.585 16.191 12.173 16.191C11.776 16.191 11.537 15.989 11.346 15.673C11.2985 15.5961 11.2542 15.5174 11.213 15.437C11.178 15.367 9.646 12.011 9.646 12.011L8.14 15.311C8.14 15.311 8.044 15.523 7.993 15.611C7.766 16.003 7.47 16.191 7.106 16.191C6.755 16.191 6.456 15.987 6.246 15.614L6.234 15.592C6.195 15.523 6.155 15.453 6.117 15.368L4.919 12.758L3.801 10.322C3.761 10.234 3.751 10.21 3.734 10.167L3.732 10.162C3.534 9.67201 3.649 9.38401 3.734 9.23901C3.904 8.95101 4.234 8.75301 4.585 8.77301C5.065 8.79901 5.312 9.06501 5.52 9.50301L5.591 9.63701L7.105 12.942C7.105 12.942 8.56 9.75501 8.615 9.64001L8.71 9.44901C8.985 8.91901 9.28 8.77201 9.644 8.77201C10.034 8.77201 10.34 8.97501 10.584 9.46901C10.584 9.46901 10.634 9.56301 10.684 9.67601L12.174 12.944L13.763 9.46901C13.763 9.46901 13.799 9.38601 13.858 9.28701C13.933 9.13168 14.0508 9.00094 14.1974 8.91009C14.344 8.81923 14.5135 8.77203 14.686 8.77401H14.694C14.759 8.77201 14.782 8.77201 14.906 8.77201H22.226C22.2871 8.77204 22.3482 8.77437 22.409 8.78101ZM30.021 14.476L30.081 14.584L30.083 14.587C30.206 14.81 30.316 15.01 30.316 15.249C30.316 15.783 29.894 16.189 29.36 16.189C29.008 16.189 28.707 15.976 28.485 15.636L28.417 15.531L26.13 11.555L23.84 15.514L23.755 15.645C23.53 15.978 23.238 16.19 22.885 16.189C22.76 16.191 22.6359 16.168 22.5199 16.1214C22.4039 16.0748 22.2984 16.0055 22.2095 15.9176C22.1207 15.8297 22.0503 15.7249 22.0024 15.6094C21.9546 15.4939 21.9303 15.37 21.931 15.245C21.931 15.005 22.027 14.829 22.151 14.602L22.245 14.442L25.19 9.45201L25.289 9.30201C25.493 8.98101 25.761 8.77301 26.129 8.76501C26.498 8.77301 26.757 8.97201 26.961 9.28501L27.056 9.43201L30.021 14.476Z" fill="#C755FF"/>
</g>
</g>
<defs>
<clipPath id="clip0_1_326">
<rect width="34" height="25" fill="white"/>
</clipPath>
</defs>
</svg>
