<svg width="55" height="25" viewBox="0 0 55 25" fill="none" xmlns="http://www.w3.org/2000/svg">
<g clip-path="url(#clip0_1_333)">
<path d="M5.567 5.266V10.396H12.53V14.946H5.567V25H0.692001V2.258C0.692001 1.023 1.172 0.547 2.406 0.547H13.941V5.267H5.567V5.266ZM15.583 25V2.258C15.583 1.026 16.069 0.547 17.303 0.547H20.458V25H15.583ZM32.68 7.657C32.68 9.643 31.514 10.633 29.83 10.633H27.7V4.679H29.83C31.514 4.679 32.68 5.674 32.68 7.657ZM37.655 18.021C37.655 14.702 35.87 13.132 34.565 12.684C35.731 12.142 37.483 10.772 37.483 7.007C37.483 3.588 35.149 0.544 30.171 0.544H24.649C23.413 0.544 22.929 1.024 22.929 2.255V24.998H30.379C34.565 24.998 37.655 22.669 37.655 18.021ZM32.745 17.751C32.745 19.802 31.546 20.795 29.863 20.795H27.7V14.702H29.862C31.545 14.702 32.745 15.695 32.745 17.751ZM49.15 12.21H44.623V7.181C44.623 6.153 44.963 4.409 46.888 4.409C48.81 4.409 49.151 6.153 49.151 7.181V12.211L49.15 12.21ZM54.027 25V6.632C54.027 4.752 52.997 0 46.889 0C40.775 0 39.749 4.752 39.749 6.632V25H44.624V16.758H49.152V25H54.027Z" fill="white"/>
</g>
<defs>
<clipPath id="clip0_1_333">
<rect width="55" height="25" fill="white"/>
</clipPath>
</defs>
</svg>
