<svg width="24" height="25" viewBox="0 0 24 25" fill="none" xmlns="http://www.w3.org/2000/svg">
<mask id="mask0_1_335" style="mask-type:luminance" maskUnits="userSpaceOnUse" x="0" y="0" width="24" height="25">
<path d="M0.026001 0H23.359V25H0.026001V0Z" fill="white"/>
</mask>
<g mask="url(#mask0_1_335)">
<path d="M22.028 6.21601L22.885 4.34601L20.865 3.77301C20.25 3.59801 19.797 3.13901 19.519 2.40901L18.627 0.0620117L16.637 1.64701C16.109 2.06701 15.574 2.28001 15.047 2.28001C14.342 2.28001 13.54 1.95001 13.003 1.44001L11.721 0.220012L10.44 1.44001C9.904 1.95001 9.101 2.28001 8.397 2.28001C7.87 2.28001 7.335 2.06701 6.807 1.64701L4.816 0.0620117L3.923 2.41001C3.646 3.14001 3.193 3.59801 2.577 3.77301L0.557999 4.34601L1.415 6.21601C1.811 7.07901 2.011 7.98001 2.011 8.89301C2.011 11.421 0.670999 11.996 0.670999 14.804C0.670999 18.849 3.923 21.496 6.946 22.244C8.474 22.602 8.935 22.626 10.314 22.953L11.721 24.409L13.129 22.953C14.508 22.626 14.969 22.602 16.497 22.244C19.519 21.496 22.773 18.849 22.773 14.804C22.773 11.996 21.432 11.421 21.432 8.89401C21.432 7.98001 21.632 7.07901 22.028 6.21601ZM21.808 11.886C22.131 12.663 22.443 13.474 22.443 14.804C22.443 18.499 19.581 21.154 16.414 21.937C14.849 22.317 14.119 22.354 12.952 22.669C12.8 22.822 11.722 23.943 11.722 23.943C11.722 23.943 10.644 22.822 10.492 22.669C9.325 22.354 8.595 22.317 7.03 21.937C4.583 21.332 2.32 19.611 1.417 17.157C1.13949 16.4036 0.998292 15.6069 0.999999 14.804C0.999999 12.044 2.34 11.522 2.34 8.89401C2.34 7.81701 2.072 6.86301 1.716 6.08801L1.012 4.54801L2.67 4.07801C3.392 3.87301 3.918 3.34801 4.233 2.51901L4.965 0.594012L6.595 1.89201C7.132 2.31901 7.745 2.59801 8.396 2.59801C9.269 2.59801 10.132 2.17901 10.672 1.66601L11.722 0.667012L12.772 1.66601C13.312 2.17901 14.175 2.59801 15.047 2.59801C15.697 2.59801 16.311 2.31801 16.847 1.89201L18.477 0.594012L19.209 2.51901C19.524 3.34901 20.049 3.87301 20.772 4.07801L22.43 4.54801L21.726 6.08801C21.3183 6.96751 21.1051 7.92462 21.101 8.89401C21.101 10.255 21.461 11.051 21.808 11.886Z" fill="white"/>
<path d="M21.391 5.01804C21.391 5.01804 18.831 4.80304 18.138 1.81104C18.138 1.81104 16.603 3.33104 15.048 3.33104C13.042 3.33104 11.722 1.69104 11.722 1.69104C11.722 1.69104 10.402 3.33104 8.396 3.33104C6.84 3.33104 5.306 1.81104 5.306 1.81104C4.612 4.80404 2.052 5.01804 2.052 5.01804C2.052 5.01804 3.093 6.78904 3.093 8.88804C3.093 9.16304 3.079 9.41704 3.053 9.65604C2.833 11.751 1.754 12.592 1.754 14.804C1.754 17.517 3.687 20.366 7.217 21.224C8.894 21.632 10.051 21.736 10.903 22.031C11.013 22.13 11.722 22.869 11.722 22.869C11.722 22.869 12.431 22.129 12.54 22.031C13.392 21.736 14.55 21.631 16.226 21.224C19.756 20.366 21.689 17.517 21.689 14.804C21.689 12.34 20.35 11.579 20.35 8.88704C20.35 6.78904 21.391 5.01804 21.391 5.01804ZM20.936 14.804C20.936 17.94 18.395 19.937 16.038 20.512C14.172 20.968 12.952 21.02 12.133 21.4C12.133 21.4 11.834 21.662 11.722 21.783C11.608 21.662 11.311 21.4 11.311 21.4C10.491 21.02 9.271 20.968 7.405 20.512C5.049 19.937 2.507 17.94 2.507 14.804C2.507 12.561 3.846 11.737 3.846 8.88704C3.846 6.96704 3.091 5.48704 3.091 5.48704C3.091 5.48704 4.833 5.15004 5.645 3.03004C5.645 3.03004 6.801 4.06804 8.396 4.06804C10.395 4.06804 11.722 2.71804 11.722 2.71804C11.722 2.71804 13.049 4.06804 15.047 4.06804C16.643 4.06804 17.799 3.03004 17.799 3.03004C18.61 5.15004 20.353 5.48904 20.353 5.48904C20.353 5.48904 19.597 6.96904 19.597 8.88904C19.597 11.739 20.937 12.562 20.937 14.805L20.936 14.804Z" fill="white"/>
<path d="M15.047 4.88899C13.555 4.88899 12.388 4.26299 11.721 3.79199C11.054 4.26199 9.888 4.88899 8.396 4.88899C7.411 4.88899 6.572 4.56899 5.981 4.24999C5.54527 4.96174 4.9273 5.54416 4.191 5.93699C4.427 6.61699 4.701 7.66899 4.701 8.88699C4.701 11.233 3.868 12.332 3.516 13.66L15.734 4.83699C15.515 4.86999 15.285 4.88899 15.047 4.88899ZM18.741 8.88799C18.741 7.66999 19.016 6.61799 19.252 5.93699C18.6448 5.61402 18.1171 5.16006 17.707 4.60799L3.364 14.965C3.434 17.002 4.802 18.485 6.366 19.257L18.845 10.247C18.7744 9.79712 18.7396 9.34336 18.741 8.88799ZM9.741 15.905L8.631 16.705L7.435 14.944V17.571L6.385 18.329V14.613C6.385 14.088 5.864 14.074 5.864 14.074L7.352 13L8.692 14.973V12.033L9.742 11.274V15.904L9.741 15.905ZM13.976 12.848L12.949 13.589V11.896L11.764 12.751V14.445L10.686 15.223V11.508C10.686 10.983 10.165 10.968 10.165 10.968L11.765 9.81399V11.525L12.949 10.67V8.95899L13.976 8.21699V12.848ZM17.849 10.05L14.871 12.2V8.48599C14.871 7.96099 14.351 7.94699 14.351 7.94699L15.95 6.79199V10.241L17.85 8.86999C17.85 8.86999 17.785 9.30999 17.85 10.051L17.849 10.05ZM7.448 19.671C7.504 19.687 7.56 19.701 7.616 19.715C9.094 20.076 10.902 20.262 11.448 20.562C11.571 20.649 11.722 20.802 11.722 20.802C11.722 20.802 11.872 20.649 11.996 20.562C12.542 20.262 14.35 20.076 15.828 19.715C17.876 19.214 20.082 17.465 20.082 14.804C20.082 13.477 19.477 12.604 19.08 11.272L7.448 19.672V19.671Z" fill="white"/>
</g>
</svg>
