<svg width="21" height="25" viewBox="0 0 21 25" fill="none" xmlns="http://www.w3.org/2000/svg">
<mask id="mask0_1_343" style="mask-type:luminance" maskUnits="userSpaceOnUse" x="0" y="0" width="21" height="25">
<path d="M0.026001 0H20.026V25H0.026001V0Z" fill="white"/>
</mask>
<g mask="url(#mask0_1_343)">
<path fill-rule="evenodd" clip-rule="evenodd" d="M2.693 0H18.025C18.379 0.001 18.717 0.138 18.967 0.382C19.217 0.625 19.357 0.955 19.359 1.299V23.702C19.3578 23.8731 19.3225 24.0422 19.2552 24.1995C19.1879 24.3568 19.0899 24.499 18.967 24.618C18.718 24.861 18.381 24.998 18.027 25H2.694C2.34 25 2.002 24.862 1.752 24.62C1.62873 24.5009 1.53054 24.3583 1.46322 24.2006C1.3959 24.043 1.3608 23.8734 1.36 23.702V1.3C1.36 0.955 1.5 0.625 1.75 0.382C2 0.138 2.339 0 2.693 0ZM5.485 19.987L6.841 18.283L7.201 19.987H5.485ZM7.394 20.881C7.46 21.143 7.49 21.26 7.958 21.281L7.962 21.279H8.63L7.664 17.576H6.995C6.331 17.576 6.276 17.599 5.917 18.032L3.204 21.28H3.414C4.072 21.28 4.311 21.281 4.484 21.175C4.584 21.114 4.661 21.018 4.783 20.868L4.789 20.86L4.999 20.6H7.329L7.389 20.86L7.394 20.88V20.881ZM13.027 17.974C12.9935 18.0576 12.9339 18.1281 12.857 18.175C12.737 18.248 12.528 18.261 12.129 18.261H11.48L10.592 21.281C9.565 21.281 9.488 21.259 9.655 20.704L10.373 18.256H8.907C9.096 17.634 9.145 17.583 9.873 17.583H13.147C13.114 17.713 13.074 17.841 13.027 17.965V17.974ZM14.642 18.255H15.511C16.507 18.255 16.498 18.565 16.418 18.819C16.25 19.41 16.238 19.41 15.231 19.41H14.302L14.642 18.255ZM14.113 20.061H15.013L15.011 20.067C17.067 20.067 17.406 19.352 17.565 18.824C17.724 18.295 17.715 17.596 15.679 17.596H14.193C13.691 17.633 13.632 17.839 13.556 18.101L13.535 18.174L12.796 20.694C12.706 20.992 12.696 21.129 12.796 21.209C12.941 21.3 13.374 21.293 13.629 21.289L13.743 21.288L13.923 20.696L14.113 20.061ZM3.997 9.618L3.93 9.575C3.92838 9.52752 3.91581 9.48107 3.89326 9.43926C3.8707 9.39745 3.83879 9.36143 3.8 9.334V8.83C3.8 8.796 3.82 8.793 3.837 8.795C3.87917 8.8202 3.91812 8.85042 3.953 8.885C4.02564 8.94878 4.10716 9.00166 4.195 9.042C4.277 9.095 4.373 9.122 4.471 9.122H4.566C4.58997 9.12497 4.61238 9.13547 4.63 9.152C4.64 9.162 4.64 9.175 4.63 9.203C4.60367 9.24039 4.57239 9.27403 4.537 9.303L4.49 9.342C4.412 9.406 4.257 9.533 4.168 9.614L3.997 9.618ZM4.033 6.366C4.208 5.942 4.845 4.752 5.811 5.178C6.667 5.558 6.61 6.721 6.266 7.448C5.766 8.501 4.996 9.175 4.269 8.783C3.495 8.364 3.757 7.034 4.033 6.362V6.366ZM18.178 10.521C18.152 10.425 18 10.373 18 10.373C18 10.255 17.826 10.216 17.826 10.216L17.816 10.204C17.782 10.07 17.63 10.102 17.63 10.102V10.072C17.604 9.984 17.46 10.013 17.46 10.013C17.395 9.907 17.268 10.001 17.268 10.001C17.2561 10.0218 17.2392 10.0392 17.2187 10.0516C17.1982 10.0641 17.1749 10.0711 17.151 10.072C16.965 10.082 16.947 10.179 16.947 10.179L16.898 10.313C16.781 10.551 16.846 10.643 16.846 10.643C16.869 10.687 16.889 10.733 16.906 10.778C16.922 10.895 16.951 11.01 16.994 11.121C16.893 11.139 16.876 11.256 16.876 11.256C16.844 11.366 16.502 11.729 16.502 11.729C16.411 11.776 16.476 11.891 16.476 11.891C16.3265 12.0441 16.1597 12.1793 15.979 12.294C15.5345 12.5799 15.1276 12.9206 14.768 13.308C14.4466 13.2637 14.12 13.2739 13.802 13.338V13.278C13.5849 13.3346 13.3747 13.4148 13.175 13.517C13.1051 13.5371 13.0309 13.5371 12.961 13.517C12.498 13.278 11.672 13.351 11.672 13.351C11.495 13.386 11.321 13.431 11.149 13.486L10.342 13.521L10.293 13.386C10.277 13.348 10.214 13.326 10.214 13.326H10.206C10.2059 13.2804 10.1999 13.235 10.188 13.191L10.168 12.711L10.375 12.442C10.437 12.442 10.326 11.791 10.326 11.791C10.346 11.691 10.174 11.318 10.174 11.318C10.1878 11.2323 10.1808 11.1445 10.1537 11.062C10.1265 10.9795 10.08 10.9048 10.018 10.844C9.95969 10.7717 9.91313 10.6907 9.88 10.604C9.857 10.508 9.559 10.354 9.354 10.284C9.15 10.216 8.777 10.284 8.344 10.554C7.91 10.823 7.83 11.392 7.83 11.476C7.83 11.521 7.874 11.661 7.913 11.784C7.947 11.894 7.977 11.989 7.968 11.991C7.96472 11.9918 7.96136 11.9921 7.958 11.992C7.932 11.993 7.878 11.995 7.931 12.207C7.991 12.447 8.294 12.63 8.294 12.63C8.359 12.65 8.484 13.073 8.534 13.252L8.478 13.273L8.432 13.358L8.327 13.434C8.247 13.45 8.165 13.458 8.083 13.46C7.69805 13.3681 7.29814 13.3579 6.909 13.43L6.275 13.118L6.233 13.182C6.04816 13.1243 5.85423 13.1012 5.661 13.114C5.661 13.114 5.207 12.225 4.791 11.904V11.872C4.817 11.855 4.807 11.807 4.799 11.762C4.795 11.742 4.791 11.722 4.791 11.708C4.791 11.661 4.661 11.518 4.661 11.518L4.481 11.237C4.481 11.237 4.421 11.102 4.398 11.015C4.39649 11.0051 4.39235 10.9958 4.386 10.988C4.37934 10.9799 4.37062 10.9738 4.36076 10.9703C4.3509 10.9668 4.34027 10.966 4.33 10.968C4.31976 10.9694 4.3101 10.9736 4.302 10.98C4.269 10.887 4.26 10.79 4.292 10.766C4.375 10.547 4.44 10.323 4.487 10.094C4.495 10.034 4.407 9.84 4.355 9.723L4.32 9.645C4.505 9.485 4.853 9.19 4.943 9.139C5.633 8.735 6.241 8.216 6.527 7.466C6.975 6.289 6.754 5.279 5.974 4.893L5.944 4.878L5.907 4.861L5.874 4.846C5.127 4.599 4.274 5.016 3.747 6.151C3.409 6.878 3.394 7.651 3.577 8.466C3.621 8.706 3.634 8.948 3.617 9.19V9.241L3.399 9.277C3.311 9.317 3.333 9.376 3.333 9.376L3.39 9.696L3.38 9.706C3.34831 9.71155 3.31981 9.72865 3.3 9.754C3.28065 9.77867 3.27136 9.80976 3.274 9.841L3.264 9.851C3.151 9.871 3.158 10.037 3.158 10.037C3.13731 10.0405 3.11767 10.0486 3.10053 10.0607C3.08339 10.0728 3.0692 10.0887 3.059 10.107C3.04922 10.1252 3.04385 10.1455 3.04332 10.1661C3.0428 10.1868 3.04715 10.2073 3.056 10.226C2.956 10.289 3.014 10.373 3.053 10.43L3.071 10.457C3.104 10.512 3.256 10.843 3.256 10.843L3.066 11.328L2.622 12.373C2.61549 12.3895 2.60394 12.4035 2.589 12.413L2.564 12.428C2.564 12.428 2.544 12.443 2.539 12.492C2.605 12.562 2.687 12.617 2.779 12.65C2.899 12.71 2.949 12.719 2.992 12.712C3.022 12.676 3.022 12.659 3.02 12.649V12.63V12.62C3.01566 12.6043 3.01566 12.5877 3.02 12.572L3.377 11.714L3.515 11.394L3.545 11.432C3.53493 11.4357 3.52635 11.4426 3.52057 11.4516C3.51479 11.4606 3.51213 11.4713 3.513 11.482C3.513 11.489 3.516 11.496 3.52 11.502L3.535 11.547C3.545 11.576 3.551 11.595 3.571 11.615C3.601 11.64 3.621 11.675 3.629 11.715C3.63491 11.7439 3.63759 11.7735 3.637 11.803C3.637 11.841 3.638 11.876 3.651 11.892L3.688 11.947C3.69356 11.976 3.70159 12.0044 3.712 12.032C3.724 12.069 3.738 12.11 3.746 12.161C3.76 12.252 3.792 12.221 3.792 12.221H3.808L3.854 12.332C4.04 12.784 4.434 13.745 4.974 14.232C5.13 14.264 5.277 14.326 5.408 14.414L5.396 14.432L5.352 14.505C5.352 14.505 5.501 14.578 5.62 14.65C5.92 14.831 6.232 14.994 6.553 15.138L6.717 15.97C5.417 16.313 4.228 16.832 3.204 17.49C5.244 16.574 7.73 16.036 10.411 16.036C13.091 16.036 15.578 16.574 17.622 17.496C16.087 16.508 14.181 15.831 12.08 15.594C12.234 15.291 12.552 15.148 12.552 15.148C12.661 15.075 13.605 14.973 13.605 14.973V14.902C14.776 14.648 15.356 14.219 15.356 14.219C15.591 14.181 15.617 14.122 15.617 14.122C15.667 14.069 15.723 14.02 15.783 13.976C16.453 13.536 17.163 12.313 17.163 12.313C17.1907 12.3243 17.2213 12.3263 17.2502 12.319C17.2792 12.3116 17.3051 12.2951 17.324 12.272C17.3364 12.2568 17.3452 12.239 17.35 12.22C17.406 12.143 17.734 11.733 17.734 11.733C17.829 11.648 17.772 11.581 17.772 11.581L17.724 11.522L17.742 11.505C17.7729 11.4614 17.7987 11.4144 17.819 11.365C17.84 11.319 17.859 11.278 17.873 11.262C17.9203 11.1854 17.9627 11.1059 18 11.024C18.036 10.933 18.076 10.843 18.122 10.756C18.1472 10.7248 18.1652 10.6886 18.1749 10.6497C18.1845 10.6108 18.1856 10.5703 18.178 10.531V10.521ZM5.254 21.776H3.949C3.689 21.795 3.658 21.916 3.616 22.085L3.608 22.115L3.218 23.593C3.176 23.757 3.172 23.836 3.218 23.878C3.29 23.931 3.516 23.927 3.65 23.924H3.713L3.953 23.023H5.223C5.322 22.663 5.301 22.637 4.898 22.637H4.062L4.182 22.167H5.552C5.577 22.095 5.596 22.02 5.61 21.945C5.63 21.775 5.478 21.776 5.29 21.777H5.254V21.776ZM5.69 23.593L6.177 21.776C6.718 21.776 6.765 21.79 6.681 22.095L6.193 23.924C5.647 23.924 5.605 23.912 5.69 23.593ZM9.272 22.07L8.946 23.29L8.176 22.003C8.042 21.771 7.99 21.771 7.683 21.772H7.375L7.013 23.134L6.888 23.587C6.804 23.91 6.845 23.922 7.39 23.922L7.805 22.392L8.58 23.671L8.587 23.683C8.707 23.89 8.725 23.923 9.084 23.923H9.373L9.95 21.77C9.409 21.77 9.35 21.779 9.28 22.068L9.272 22.07ZM13.809 23.538H14.413C14.627 23.538 14.723 23.551 14.765 23.593C14.822 23.645 14.779 23.787 14.751 23.879L14.738 23.924H13.621C13.191 23.924 13.119 23.924 13.207 23.589L13.689 21.776H13.755C13.892 21.773 14.116 21.768 14.187 21.822C14.24 21.863 14.235 21.948 14.187 22.116L13.809 23.538ZM15.511 22.418C15.405 22.865 15.883 22.935 16.308 22.996L16.478 23.022C16.646 23.052 16.955 23.127 16.906 23.307L16.903 23.32C16.892 23.37 16.865 23.482 16.807 23.505C16.6278 23.5261 16.4472 23.5328 16.267 23.525H15.743C15.533 23.525 15.423 23.533 15.36 23.579C15.297 23.624 15.26 23.705 15.203 23.927H16.169C17.045 23.927 17.412 23.608 17.489 23.285C17.617 22.814 17.115 22.735 16.655 22.664C16.5303 22.6468 16.4064 22.6235 16.284 22.594C16.132 22.551 16.085 22.481 16.102 22.414L16.103 22.408L16.107 22.391C16.12 22.334 16.147 22.214 16.205 22.192C16.37 22.167 16.537 22.158 16.704 22.166H17.27C17.669 22.166 17.7 22.141 17.8 21.772H16.824C16.038 21.772 15.607 22.012 15.508 22.418H15.511ZM11.904 21.772H12.254L12.767 23.92H12.415C12.169 23.908 12.153 23.84 12.118 23.69L12.115 23.677L12.083 23.527H10.86L10.75 23.677L10.745 23.685C10.678 23.774 10.637 23.829 10.582 23.865C10.487 23.925 10.355 23.925 9.996 23.925H9.911L11.338 22.041C11.527 21.786 11.558 21.772 11.904 21.772ZM11.825 22.174L11.111 23.164H12.014L11.825 22.174ZM18.018 24.157H17.908L17.921 24.092H18.217L18.203 24.157H18.096L18.036 24.441H17.958L18.018 24.157ZM18.364 24.094H18.256L18.186 24.442H18.259L18.311 24.165L18.346 24.442H18.406L18.555 24.165L18.491 24.442H18.564L18.639 24.094H18.529L18.392 24.345L18.364 24.094Z" fill="#78D6FF"/>
</g>
</svg>
