<svg width="56" height="25" viewBox="0 0 56 25" fill="none" xmlns="http://www.w3.org/2000/svg">
<mask id="mask0_1_349" style="mask-type:luminance" maskUnits="userSpaceOnUse" x="0" y="0" width="56" height="25">
<path d="M0.026001 0H55.026V25H0.026001V0Z" fill="white"/>
</mask>
<g mask="url(#mask0_1_349)">
<path d="M47.784 12.275C46.571 11.725 45.392 11.069 44.21 11.069C43.943 11.069 43.642 11.075 43.319 11.17C43.337 10.161 43.809 8.63996 45.106 7.45396C45.904 6.72396 46.774 6.34796 47.646 6.34796C48.348 6.34796 49.304 6.51296 50.051 6.82096C52.141 7.68396 53.105 8.98096 53.105 10.244C53.105 10.413 53.095 10.579 53.065 10.746C52.859 11.9 51.921 13.013 50.444 13.013C49.581 13.013 49 12.853 47.784 12.275Z" fill="#FFE600"/>
<path d="M49.065 17.405C52.28 17.405 54.948 14.71 54.948 11.496C54.948 9.75598 54.287 8.34398 53.155 7.31398C51.796 6.07898 50.006 5.58398 48.842 5.58398C48.584 5.58398 48.272 5.62198 48.013 5.69398C47.919 5.72098 47.866 5.76698 47.866 5.82598C47.866 5.90598 47.931 5.95398 48.166 5.96698C49.898 6.06098 51.806 6.85198 52.899 7.95898C53.839 8.90898 54.084 9.91898 54.05 10.636C53.965 12.508 52.59 13.825 50.671 13.825C49.891 13.825 49.074 13.551 48.371 13.228C46.904 12.548 45.656 11.584 44.133 11.584C43.45 11.584 43.305 11.806 43.305 12.103C43.305 13.226 43.915 14.652 45.051 15.745C46.023 16.68 47.373 17.405 49.065 17.405Z" fill="#FFE600"/>
<path d="M41.768 7.65998C28.988 0.429976 18.512 -1.61002 10.632 1.59498C2.48001 4.90798 0.183008 12.844 0.160008 12.924C0.139205 12.9968 0.146714 13.0748 0.181028 13.1423C0.215341 13.2098 0.27392 13.2619 0.345008 13.288C0.416051 13.3153 0.494651 13.3155 0.565833 13.2885C0.637015 13.2616 0.695807 13.2094 0.731008 13.142C2.93401 8.83598 6.43101 5.89198 11.126 4.39598C14.902 3.18998 19.459 2.90898 24.673 3.55898C33.584 4.66898 41.408 8.16498 41.487 8.19998C41.5588 8.23206 41.6401 8.23576 41.7145 8.21034C41.7888 8.18492 41.8509 8.13227 41.888 8.06298C41.9237 7.99331 41.931 7.91256 41.9084 7.83763C41.8859 7.76269 41.8352 7.69939 41.767 7.66098L41.768 7.65998Z" fill="#07C790"/>
<path d="M5.418 24.97V10.812C5.418 10.175 5.816 9.94598 6.366 9.94598H9.447V21.992C9.447 22.331 9.408 22.66 9.331 22.936C8.979 24.185 7.839 24.97 6.019 24.97H5.418ZM20.452 12.75H23.682C24.802 12.75 25.182 12.479 25.326 11.924L25.776 9.94598H13.294C12.547 9.94598 12.201 10.136 12.05 10.784L11.567 12.75H16.427V24.97H17.026C18.808 24.97 20.005 24.232 20.349 22.895C20.4202 22.5963 20.4548 22.29 20.452 21.983V12.75ZM28.88 9.94598C28.067 9.94598 27.81 10.232 27.81 10.904V24.971H28.412C30.396 24.971 31.482 24.052 31.768 22.767C31.818 22.535 31.843 22.201 31.843 21.947V18.77H34.431C35.301 18.77 35.705 18.545 35.925 17.91L36.511 15.966H31.846V12.76H36.223C37.297 12.76 37.618 12.441 37.853 11.696L38.406 9.94598H28.88Z" fill="#07C790"/>
</g>
</svg>
