<svg width="12" height="12" viewBox="0 0 12 12" fill="none" xmlns="http://www.w3.org/2000/svg">
<path d="M10.9926 5.36156L8.87852 7.20656L9.51181 9.95343C9.54532 10.097 9.53576 10.2473 9.48431 10.3855C9.43287 10.5237 9.34184 10.6437 9.22259 10.7304C9.10334 10.8171 8.96117 10.8668 8.81385 10.8732C8.66653 10.8796 8.5206 10.8424 8.39431 10.7662L5.99853 9.31312L3.6079 10.7662C3.48161 10.8424 3.33568 10.8796 3.18836 10.8732C3.04104 10.8668 2.89887 10.8171 2.77962 10.7304C2.66037 10.6437 2.56933 10.5237 2.51789 10.3855C2.46645 10.2473 2.45689 10.097 2.4904 9.95343L3.12274 7.20937L1.00821 5.36156C0.896374 5.2651 0.815502 5.13777 0.77574 4.99554C0.735977 4.8533 0.739095 4.70249 0.7847 4.56202C0.830306 4.42155 0.91637 4.29767 1.0321 4.20591C1.14783 4.11416 1.28807 4.05862 1.43524 4.04625L4.22243 3.80484L5.3104 1.20984C5.36722 1.07368 5.46305 0.957367 5.58583 0.875556C5.70861 0.793745 5.85286 0.750092 6.0004 0.750092C6.14794 0.750092 6.29219 0.793745 6.41497 0.875556C6.53775 0.957367 6.63359 1.07368 6.6904 1.20984L7.78165 3.80484L10.5679 4.04625C10.7151 4.05862 10.8553 4.11416 10.971 4.20591C11.0868 4.29767 11.1728 4.42155 11.2184 4.56202C11.2641 4.70249 11.2672 4.8533 11.2274 4.99554C11.1876 5.13777 11.1068 5.2651 10.9949 5.36156H10.9926Z" fill="black"/>
</svg>
