<?xml version="1.0" encoding="utf-8"?>
<svg viewBox="0 0 21 20" xmlns="http://www.w3.org/2000/svg" xmlns:xlink="http://www.w3.org/1999/xlink">
  <style>:root>svg{display:none}:root>svg:target{display:block}</style>

  <symbol id="cross" viewBox="0 0 33 32">
      <path d="M24.2598 8.06072L8.46086 23.8596" stroke="#000" stroke-width="2" stroke-linecap="round"/>
      <path d="M8.93945 8.06075L24.7384 23.8596" stroke="#000" stroke-width="2" stroke-linecap="round"/>
  </symbol>



  <svg id="phone" viewBox="0 0 24 24" >
    <path d="M19.23 15.26L16.69 14.97C16.3913 14.9349 16.0886 14.968 15.8046 15.0667C15.5205 15.1654 15.2625 15.3273 15.05 15.54L13.21 17.38C10.3712 15.9362 8.06379 13.6288 6.62001 10.79L8.47001 8.94001C8.90001 8.51001 9.11001 7.91001 9.04001 7.30001L8.75001 4.78001C8.69332 4.29219 8.4592 3.84225 8.09225 3.51586C7.72529 3.18947 7.25112 3.00943 6.76001 3.01001H5.03001C3.90001 3.01001 2.96001 3.95001 3.03001 5.08001C3.56001 13.62 10.39 20.44 18.92 20.97C20.05 21.04 20.99 20.1 20.99 18.97V17.24C21 16.23 20.24 15.38 19.23 15.26Z" />
  </svg>
  <svg id="inst"   viewBox="0 0 20 20">
    <path d="M10 6.25C9.25832 6.25 8.5333 6.46993 7.91661 6.88199C7.29993 7.29404 6.81928 7.87971 6.53545 8.56494C6.25162 9.25016 6.17736 10.0042 6.32206 10.7316C6.46675 11.459 6.8239 12.1272 7.34835 12.6517C7.8728 13.1761 8.54098 13.5333 9.26841 13.6779C9.99584 13.8226 10.7498 13.7484 11.4351 13.4645C12.1203 13.1807 12.706 12.7001 13.118 12.0834C13.5301 11.4667 13.75 10.7417 13.75 10C13.749 9.00576 13.3535 8.05253 12.6505 7.34949C11.9475 6.64645 10.9942 6.25103 10 6.25ZM10 12.5C9.50555 12.5 9.0222 12.3534 8.61107 12.0787C8.19995 11.804 7.87952 11.4135 7.6903 10.9567C7.50108 10.4999 7.45157 9.99723 7.54804 9.51227C7.6445 9.02732 7.8826 8.58186 8.23223 8.23223C8.58186 7.8826 9.02732 7.6445 9.51227 7.54804C9.99723 7.45157 10.4999 7.50108 10.9567 7.6903C11.4135 7.87952 11.804 8.19995 12.0787 8.61107C12.3534 9.0222 12.5 9.50555 12.5 10C12.5 10.663 12.2366 11.2989 11.7678 11.7678C11.2989 12.2366 10.663 12.5 10 12.5ZM13.75 1.875H6.25C5.09006 1.87624 3.97798 2.33758 3.15778 3.15778C2.33758 3.97798 1.87624 5.09006 1.875 6.25V13.75C1.87624 14.9099 2.33758 16.022 3.15778 16.8422C3.97798 17.6624 5.09006 18.1238 6.25 18.125H13.75C14.9099 18.1238 16.022 17.6624 16.8422 16.8422C17.6624 16.022 18.1238 14.9099 18.125 13.75V6.25C18.1238 5.09006 17.6624 3.97798 16.8422 3.15778C16.022 2.33758 14.9099 1.87624 13.75 1.875ZM16.875 13.75C16.875 14.5788 16.5458 15.3737 15.9597 15.9597C15.3737 16.5458 14.5788 16.875 13.75 16.875H6.25C5.4212 16.875 4.62634 16.5458 4.04029 15.9597C3.45424 15.3737 3.125 14.5788 3.125 13.75V6.25C3.125 5.4212 3.45424 4.62634 4.04029 4.04029C4.62634 3.45424 5.4212 3.125 6.25 3.125H13.75C14.5788 3.125 15.3737 3.45424 15.9597 4.04029C16.5458 4.62634 16.875 5.4212 16.875 6.25V13.75ZM15 5.9375C15 6.12292 14.945 6.30418 14.842 6.45835C14.739 6.61252 14.5926 6.73268 14.4213 6.80364C14.25 6.87459 14.0615 6.89316 13.8796 6.85699C13.6977 6.82081 13.5307 6.73152 13.3996 6.60041C13.2685 6.4693 13.1792 6.30225 13.143 6.1204C13.1068 5.93854 13.1254 5.75004 13.1964 5.57873C13.2673 5.40743 13.3875 5.26101 13.5417 5.158C13.6958 5.05498 13.8771 5 14.0625 5C14.3111 5 14.5496 5.09877 14.7254 5.27459C14.9012 5.4504 15 5.68886 15 5.9375Z" />
  </svg>
  <svg  id="tg"   viewBox="0 0 20 20">
    <path fill-rule="evenodd" clip-rule="evenodd" d="M15.4025 16.4917V16.49L15.4175 16.4542L17.9167 3.85415V3.81415C17.9167 3.49999 17.8 3.22582 17.5483 3.06165C17.3275 2.91749 17.0733 2.90749 16.895 2.92082C16.729 2.93583 16.5652 2.96938 16.4067 3.02082C16.3391 3.04262 16.2723 3.06708 16.2067 3.09415L16.1958 3.09832L2.2625 8.56415L2.25833 8.56582C2.21597 8.58029 2.17451 8.59726 2.13416 8.61665C2.03507 8.66117 1.94 8.71415 1.85 8.77499C1.67083 8.89832 1.33 9.18832 1.3875 9.64832C1.435 10.03 1.6975 10.2717 1.875 10.3975C1.97977 10.4709 2.09241 10.5324 2.21083 10.5808L2.2375 10.5925L2.24583 10.595L2.25166 10.5975L4.69 11.4183C4.68166 11.5708 4.69666 11.7267 4.7375 11.8808L5.95833 16.5133C6.02502 16.7658 6.16914 16.9911 6.37043 17.1575C6.57173 17.3239 6.82009 17.4231 7.08064 17.4411C7.3412 17.4592 7.60085 17.3951 7.82313 17.258C8.04542 17.1209 8.21918 16.9176 8.32 16.6767L10.2267 14.6383L13.5008 17.1483L13.5475 17.1683C13.845 17.2983 14.1225 17.3392 14.3767 17.305C14.6308 17.27 14.8325 17.1633 14.9842 17.0425C15.1596 16.9003 15.2994 16.7191 15.3925 16.5133L15.3992 16.4992L15.4017 16.4942L15.4025 16.4917ZM5.94583 11.5625C5.93231 11.5111 5.93552 11.4567 5.955 11.4073C5.97448 11.3578 6.00922 11.3159 6.05416 11.2875L14.3217 6.03749C14.3217 6.03749 14.8083 5.74165 14.7908 6.03749C14.7908 6.03749 14.8775 6.08915 14.6167 6.33165C14.37 6.56249 8.72416 12.0133 8.1525 12.565C8.12071 12.5959 8.09844 12.6352 8.08833 12.6783L7.16666 16.195L5.94583 11.5617V11.5625Z" />
  </svg>
  <svg  id="tik"  viewBox="0 0 21 21" >
    <path d="M14.525 5.0925C13.9269 4.40967 13.5973 3.53275 13.5975 2.625H10.8938V13.475C10.8729 14.0621 10.625 14.6183 10.2023 15.0263C9.77959 15.4343 9.21503 15.6624 8.62751 15.6625C7.38501 15.6625 6.35251 14.6475 6.35251 13.3875C6.35251 11.8825 7.80501 10.7537 9.30126 11.2175V8.4525C6.28251 8.05 3.64001 10.395 3.64001 13.3875C3.64001 16.3013 6.05502 18.375 8.61876 18.375C11.3663 18.375 13.5975 16.1438 13.5975 13.3875V7.88375C14.6939 8.67112 16.0102 9.09357 17.36 9.09125V6.3875C17.36 6.3875 15.715 6.46625 14.525 5.0925Z" />
  </svg>
  <svg id="face" viewBox="0 0 21 21" >
      <path d="M13.23 4.65503H14.875V1.87253C14.0785 1.7897 13.2783 1.74882 12.4775
        1.75003C10.0975 1.75003 8.47 3.20253 8.47 5.86253V8.15503H5.78375V11.27H8.47V19.25H11.69V11.27H14.3675L14.77 8.15503H11.69V6.16878C11.69
         5.25003 11.935 4.65503 13.23 4.65503Z" />
  </svg>
  <svg id="arr-b" viewBox="0 0 13 13" >
    <g id="arrowdown" clip-path="url(#clip0_2_153)">
    <g id="Group">
    <path id="Vector" d="M6.60034 10.1147C6.37094 10.1147 6.14156 10.0271 5.96667 9.85225L0.462959 4.34849C0.112852 3.99838 0.112852 3.43074 0.462959 3.08077C0.812925 2.73081 1.38045 2.73081 1.73059 3.08077L6.60034 7.95081L11.4701 3.08094C11.8202 2.73098 12.3877 2.73098 12.7376 3.08094C13.0879 3.43091 13.0879 3.99855 12.7376 4.34866L7.23401 9.85242C7.05903 10.0273 6.82965 10.1147 6.60034 10.1147Z" />
    </g>
    </g>
    <defs>
    <clipPath id="clip0_2_153">
    <rect width="12.8" height="12.8" transform="translate(0.200073 0.0667725)"/>
    </clipPath>
    </defs>
  </svg>
  <svg id="arr-r" viewBox="0 0 24 24" >
     <path d="M5 12H19M19 12L13 18M19 12L13 6" stroke-width="2" stroke-linecap="round" stroke-linejoin="round"/>
  </svg>

  <svg id="adv-1" viewBox="0 0 48 45" >
      <path d="M23.5429 37.6861L34.9608 44.5919C37.0518 45.8575 39.6106 43.9867 39.0603 41.6205L36.0339 28.6343L46.1312 19.8851C47.9746 18.2894 46.9841 15.2629 44.5629 15.0703L31.2741
        13.9423L26.0741 1.67142C25.1387 -0.557141 21.9471 -0.557141 21.0117 1.67142L15.8117 13.9148L2.52284 15.0428C0.101682 15.2354 -0.888792 18.2619 0.954589 19.8576L11.0519
         28.6068L8.02547 41.593C7.47521 43.9591 10.0339 45.83 12.1249 44.5644L23.5429 37.6861Z"/>
  </svg>
  <svg  id="adv-2"  viewBox="0 0 47 47"  >
      <path d="M41.3694 7.83021C30.5265 9.40001 28.3762 6.65756 23.5 2.35001C18.6237 6.65756 16.4735 9.40001 5.6306 7.83021C-0.148054 36.613 23.5 44.65 23.5 44.65C23.5 44.65 47.1481 36.613 41.3694 7.83021ZM29.3115 31.2762L23.5 28.2212L17.6908 31.2762L18.8 24.8066L14.1 20.2241L20.5954 19.2818L23.5 13.395L26.4046 19.2818L32.9 20.2241L28.2 24.8043L29.3115 31.2762Z" />
  </svg>
  <svg id="adv-3"  viewBox="0 0 48 42" >
    <path d="M28.5993 17.3357C28.1891 16.9257 27.6329 16.6953 27.0529 16.6953C26.4729 16.6953 25.9166 16.9257 25.5064 17.3357L23.96 18.8822C23.1395 19.7024 22.0267 20.1631 20.8664 20.1629C19.7062 20.1627 18.5935 19.7016 17.7733 18.8811C16.953 18.0605 16.4923 16.9477 16.4925 15.7875C16.4927 14.6272 16.9538 13.5146 17.7743 12.6943L30.0888 0.375447C33.0043 -0.287683 36.0547 -0.0147702 38.8062 1.15538C41.5576 2.32553 43.8702 4.33335 45.4149 6.89335C46.9597 9.45335 47.6581 12.4352 47.4107 15.4149C47.1634 18.3946 45.9829 21.2205 44.0372 23.4908L39.4264 28.1607L28.5993 17.3357ZM4.62652 4.19009C6.88984 1.92706 9.85026 0.493515 13.0291 0.12121C16.208 -0.251096 19.4196 0.459604 22.1446 2.13841L14.6793 9.60146C13.0512 11.2126 12.1198 13.3981 12.0852 15.6884C12.0507 17.9788 12.9157 20.1913 14.4945 21.8509C16.0733 23.5104 18.24 24.4847 20.5292 24.5643C22.8184 24.644 25.0476 23.8227 26.7379 22.2768L27.0529 21.975L36.3336 31.2557L27.0529 40.5342C26.2325 41.3543 25.12 41.815 23.96 41.815C22.8 41.815 21.6875 41.3543 20.8672 40.5342L4.62433 24.2957C3.30392 22.9755 2.2565 21.4081 1.54189 19.683C0.82728 17.958 0.459473 16.109 0.459473 14.2418C0.459473 12.3746 0.82728 10.5257 1.54189 8.8006C2.2565 7.07554 3.30392 5.50814 4.62433 4.1879L4.62652 4.19009Z" />
  </svg>

  <svg id="adv-4" viewBox="0 0 37 45" >
    <path d="M2.28494 6.15593C2.28515 5.71497 2.15776 5.28338 1.91814 4.91321C1.67853 4.54305 1.33692 4.25012 0.93454 4.06977C1.26357 3.81157 1.66115 3.63563 2.09986 3.57165L26.7727 0.0459813C27.4209 -0.0466718 28.0815 0.00105492 28.7096 0.185929C29.3378 0.370803 29.9188 0.688506 30.4135 1.11752C30.9082 1.54654 31.3049 2.07685 31.5767 2.67254C31.8486 3.26823 31.9893 3.91538 31.9892 4.57017V6.44383C31.2427 6.25207 30.475 6.15534 29.7043 6.15593H2.28494ZM13.1384 24.4355C13.1384 23.072 13.6801 21.7643 14.6442 20.8002C15.6084 19.836 16.9161 19.2944 18.2796 19.2944C19.6431 19.2944 20.9507 19.836 21.9149 20.8002C22.879 21.7643 23.4207 23.072 23.4207 24.4355C23.4207 25.799 22.879 27.1067 21.9149 28.0708C20.9507 29.035 19.6431 29.5766 18.2796 29.5766C16.9161 29.5766 15.6084 29.035 14.6442 28.0708C13.6801 27.1067 13.1384 25.799 13.1384 24.4355Z" />
    <path fill-rule="evenodd" clip-rule="evenodd" d="M31.9892 8.8293C34.6512 9.77298 36.5591 12.3116 36.5591 15.2957V38.1452C36.5591 39.9632 35.8369 41.7067 34.5514 42.9923C33.2659 44.2778 31.5223 45 29.7043 45H6.85484C5.03682 45 3.29327 44.2778 2.00774 42.9923C0.722204 41.7067 0 39.9632 0 38.1452V6.15591C0 6.76192 0.240735 7.3431 0.669245 7.77161C1.09776 8.20012 1.67894 8.44086 2.28495 8.44086H29.7043C30.504 8.44086 31.274 8.57796 31.9892 8.8293ZM18.2796 15.8669C16.007 15.8669 13.8276 16.7697 12.2207 18.3766C10.6138 19.9835 9.71102 22.163 9.71102 24.4355C9.71102 26.708 10.6138 28.8874 12.2207 30.4944C13.8276 32.1013 16.007 33.004 18.2796 33.004C20.5521 33.004 22.7315 32.1013 24.3384 30.4944C25.9454 28.8874 26.8481 26.708 26.8481 24.4355C26.8481 22.163 25.9454 19.9835 24.3384 18.3766C22.7315 16.7697 20.5521 15.8669 18.2796 15.8669ZM13.7097 36.4314C13.2552 36.4314 12.8193 36.612 12.4979 36.9334C12.1765 37.2548 11.996 37.6906 11.996 38.1452C11.996 38.5997 12.1765 39.0355 12.4979 39.3569C12.8193 39.6783 13.2552 39.8589 13.7097 39.8589H22.8495C23.304 39.8589 23.7398 39.6783 24.0612 39.3569C24.3826 39.0355 24.5632 38.5997 24.5632 38.1452C24.5632 37.6906 24.3826 37.2548 24.0612 36.9334C23.7398 36.612 23.304 36.4314 22.8495 36.4314H13.7097Z" />
  </svg>

  <svg id="adv-5"  viewBox="0 0 36 45" >
    <path d="M17.6786 0C12.9916 0.00552933 8.49824 1.86986 5.18406 5.18404C1.86988 8.49822 0.00554814 12.9916 1.88082e-05 17.6786C-0.00559477 21.5088 1.24552 25.235 3.56145 28.2857C3.56145 28.2857 4.04359 28.9205 4.12234 29.0121L17.6786 45L31.2413 29.0041C31.312 28.9189 31.7957 28.2857 31.7957 28.2857L31.7973 28.2809C34.1121 25.2315 35.3627 21.507 35.3572 17.6786C35.3516 12.9916 33.4873 8.49822 30.1731 5.18404C26.8589 1.86986 22.3655 0.00552933 17.6786 0ZM17.6786 24.1071C16.4071 24.1071 15.1642 23.7301 14.1071 23.0237C13.0499 22.3174 12.2259 21.3133 11.7394 20.1387C11.2528 18.964 11.1255 17.6714 11.3735 16.4244C11.6216 15.1774 12.2339 14.0319 13.1329 13.1329C14.032 12.2338 15.1774 11.6216 16.4244 11.3735C17.6715 11.1255 18.964 11.2528 20.1387 11.7393C21.3134 12.2259 22.3174 13.0499 23.0238 14.107C23.7301 15.1642 24.1072 16.4071 24.1072 17.6786C24.105 19.3829 23.4271 21.0168 22.2219 22.2219C21.0168 23.427 19.3829 24.105 17.6786 24.1071Z"/>
  </svg>
  <svg id="adv-6"  viewBox="0 0 45 42">
     <path d="M22.5 41.2875L19.2375 38.3175C7.65 27.81 0 20.8575 0 12.375C0 5.4225 5.445 0 12.375 0C16.29 0 20.0475 1.8225 22.5 4.68C24.9525 1.8225 28.71 0 32.625 0C39.555 0 45 5.4225 45 12.375C45 20.8575 37.35 27.81 25.7625 38.3175L22.5 41.2875Z"/>
  </svg>
  <svg id="star" viewBox="0 0 24 24" >
    <path d="M12 17.27L18.18 21L16.54 13.97L22 9.24L14.81 8.63L12 2L9.19 8.63L2 9.24L7.46 13.97L5.82 21L12 17.27Z" />
  </svg>



  <svg id="qq"  viewBox="0 0 12 8" >
    <path d="M11.8082 1.04845L11.4151 0.652644C11.2914 0.529033 11.1268 0.460935 10.9509 0.460935C10.7751 0.460935 10.6103 0.529033 10.4866 0.652644L6.00268 5.13678L1.51357 0.647666C1.39006 0.524056 1.22528 0.456055 1.04947 0.456055C0.873666 0.456055 0.708786 0.524055 0.585175 0.647666L0.192001 1.04104C-0.0640007 1.29684 -0.0640007 1.71353 0.192001 1.96934L5.53682 7.33338C5.66034 7.45689 5.82492 7.54392 6.00229 7.54392L6.00434 7.54392C6.18024 7.54392 6.34483 7.4568 6.46834 7.33338L11.8082 1.98387C11.9319 1.86036 11.9998 1.6908 12 1.51499C12 1.33909 11.9319 1.17187 11.8082 1.04845Z"/>
  </svg>
  <svg  id="pow" viewBox="0 0 30 30" >
    <path d="M25.9453 21.2004C25.4297 19.7297 24.2279 18.9844 23.0678 18.2637C22.0582 17.6361 21.1049 17.0432 20.4814 15.9785C18.7629 13.0295 17.8189 11.25 15.0035 11.25C12.1881 11.25 11.2412 13.0301 9.51854 15.9779C8.89452 17.0449 7.93651 17.6391 6.92577 18.2678C5.76561 18.9891 4.5662 19.7326 4.04881 21.2004C3.84745 21.7297 3.74612 22.2917 3.74998 22.858C3.74998 25.2451 5.65135 27.1875 7.7578 27.1875C9.86424 27.1875 12.6392 26.1252 15.0094 26.1252C17.3795 26.1252 20.1158 27.1875 22.2486 27.1875C24.3814 27.1875 26.25 25.2451 26.25 22.858C26.2517 22.2914 26.1483 21.7294 25.9453 21.2004Z" />
    <path d="M4.21875 16.875C6.03093 16.875 7.5 14.9862 7.5 12.6562C7.5 10.3263 6.03093 8.4375 4.21875 8.4375C2.40657 8.4375 0.9375 10.3263 0.9375 12.6562C0.9375 14.9862 2.40657 16.875 4.21875 16.875Z" />
    <path d="M10.7812 11.25C12.5934 11.25 14.0625 9.3612 14.0625 7.03125C14.0625 4.7013 12.5934 2.8125 10.7812 2.8125C8.96907 2.8125 7.5 4.7013 7.5 7.03125C7.5 9.3612 8.96907 11.25 10.7812 11.25Z" />
    <path d="M19.2188 11.25C21.0309 11.25 22.5 9.3612 22.5 7.03125C22.5 4.7013 21.0309 2.8125 19.2188 2.8125C17.4066 2.8125 15.9375 4.7013 15.9375 7.03125C15.9375 9.3612 17.4066 11.25 19.2188 11.25Z" />
    <path d="M25.7812 16.875C27.5934 16.875 29.0625 14.9862 29.0625 12.6562C29.0625 10.3263 27.5934 8.4375 25.7812 8.4375C23.9691 8.4375 22.5 10.3263 22.5 12.6562C22.5 14.9862 23.9691 16.875 25.7812 16.875Z" />
  </svg>














</svg>
