<svg width="61" height="25" viewBox="0 0 61 25" fill="none" xmlns="http://www.w3.org/2000/svg">
<g clip-path="url(#clip0_1_317)">
<path d="M59.371 13.482C55.5853 9.63512 51.0706 6.58161 46.091 4.49997C41.1061 2.42324 35.7582 1.35827 30.358 1.36697C24.9582 1.35782 19.6106 2.42246 14.626 4.49897C9.64663 6.58016 5.13201 9.63296 1.34601 13.479L0.359009 12.528C4.27483 8.55195 8.94376 5.39616 14.093 3.24497C19.246 1.096 24.7749 -0.00704324 30.358 -2.77805e-05C36.122 -2.77805e-05 41.618 1.15497 46.625 3.24697C51.7748 5.3977 56.4438 8.55393 60.359 12.531L59.371 13.481V13.482ZM47.63 24.99C45.4266 22.6104 42.7546 20.7126 39.782 19.416C36.8077 18.1226 33.5983 17.4577 30.355 17.463C26.997 17.463 23.806 18.163 20.922 19.419C17.9478 20.7169 15.2749 22.6172 13.072 25L12.053 24.075C14.3865 21.5533 17.2174 19.5427 20.367 18.17C23.5177 16.7971 26.9183 16.091 30.355 16.096C33.903 16.096 37.281 16.836 40.335 18.166C43.4819 19.5376 46.3104 21.5465 48.642 24.066L47.63 24.99Z" fill="white"/>
<path fill-rule="evenodd" clip-rule="evenodd" d="M11.16 9.498L14.163 13.348C15.916 15.596 14.976 17.555 13.097 18.993C11.109 20.516 8.957 20.699 7.32 18.601L4.31 14.741L6.017 13.434L9.059 17.333C9.819 18.308 10.991 18.349 11.975 17.596C12.88 16.904 13.349 15.798 12.402 14.586L9.453 10.806L11.16 9.498ZM27.867 12.884L21.625 14.208L19.81 5.825L25.967 4.52L26.299 6.056L22.253 6.913L22.633 8.672L26.493 7.854L26.826 9.389L22.966 10.208L23.401 12.225L27.535 11.348L27.867 12.884ZM40.608 7.184L36.87 6.463L36.501 8.338L40.239 9.058L39.938 10.601L36.199 9.881L35.522 13.336L33.402 12.93L35.053 4.513L40.91 5.64L40.608 7.184ZM49.978 16.108L47.788 14.604L50.748 12.582L49.978 16.108ZM52.928 11.587L50.874 10.175L43.073 15.251L44.95 16.541L46.457 15.511L49.639 17.696L49.248 19.492L51.156 20.804L52.928 11.587Z" fill="white"/>
</g>
<defs>
<clipPath id="clip0_1_317">
<rect width="61" height="25" fill="white"/>
</clipPath>
</defs>
</svg>
