<svg width="63" height="32" viewBox="0 0 63 32" fill="none" xmlns="http://www.w3.org/2000/svg">
<path d="M15.0354 13.2635C15.2657 12.1566 14.8499 11.3633 14.1077 10.8451C13.4294 10.3908 12.5721 10.3268 11.6636 10.7747L7.8888 12.4765C6.94189 12.9052 6.53242 14.012 6.94189 14.9397C7.37056 15.8866 8.45822 16.2961 9.40513 15.8866L9.90421 15.6563L9.09162 20.071C8.86129 21.4018 9.72501 22.4894 10.9022 22.7197C12.1498 22.9501 13.3654 22.1311 13.5702 20.8835L15.0354 13.2635Z" fill="#0095FF"/>
<path d="M49.3734 10.5193C47.2941 10.2186 45.1956 11.4342 44.3958 13.1488L44.5302 12.4003C44.8693 10.884 44.2359 10.4809 43.1545 10.4809H41.7534C40.4226 10.4809 40.1219 11.2039 39.962 12.042L38.3305 21.0888C38.1961 21.703 38.2857 22.765 39.4821 22.765H41.4271C42.5787 22.765 42.8027 21.8629 42.9626 20.9992L43.7495 16.6549C43.9351 15.6632 44.0887 15.1834 44.4278 14.8187C44.9461 14.2301 45.9889 13.9614 46.7119 14.55C47.1406 14.9083 47.3005 15.5225 47.1853 16.3862L46.3984 21.0888C46.2256 22.1316 46.6671 22.765 47.5308 22.765H49.4758C50.5826 22.765 50.8066 21.9077 50.9665 20.9992L52.1054 15.1066C52.6364 12.9825 51.8878 10.884 49.3734 10.5193Z" fill="white"/>
<path d="M36.9036 9.30383C38.1403 9.30383 39.1429 8.30986 39.1429 7.08373C39.1429 5.85759 38.1403 4.86362 36.9036 4.86362C35.6669 4.86362 34.6644 5.85759 34.6644 7.08373C34.6644 8.30986 35.6669 9.30383 36.9036 9.30383Z" fill="#0095FF"/>
<path d="M37.0445 20.9842C36.8846 21.9312 36.6159 22.7501 35.509 22.7501H33.5449C32.5979 22.7501 32.2524 22.0463 32.4379 21.1185L34.0503 12.0271C34.2102 11.0545 34.6389 10.4659 35.8417 10.4659H37.3324C38.5992 10.4659 38.9127 11.0801 38.644 12.3854L37.0445 20.9842Z" fill="white"/>
<path d="M15.4319 10.4659C15.9309 11.0545 16.5195 11.7775 16.2188 13.5434L15.4511 17.6892L15.5854 21.0162C15.611 22.2191 16.1996 22.7373 17.1913 22.7373H19.7249C20.5118 22.7373 20.8573 22.1231 21.1708 21.3617L23.0903 16.6336L23.295 21.1569C23.3206 22.1487 23.8133 22.7629 24.741 22.7629H27.6136C28.4262 22.7629 28.7653 22.2639 29.1299 21.3872L32.8153 12.3406C33.2183 11.4129 32.9752 10.4851 31.977 10.4851H30.1408C29.4626 10.4851 28.9892 10.7154 28.7141 11.3681L26.2253 17.4205L25.995 12.0143C25.9502 10.8625 25.4063 10.4787 24.7474 10.4787H22.8728C22.1242 10.4787 21.6954 10.773 21.4715 11.3361L18.9827 17.4461L18.7524 11.8799C18.7268 10.8369 18.3685 10.4787 17.5304 10.4787H15.9309H15.4319V10.4659Z" fill="white"/>
</svg>
